<svg xmlns="http://www.w3.org/2000/svg" width="79" height="144" fill="none" viewBox="0 0 79 144">
  <path stroke="#00ff7f" stroke-linecap="round" stroke-linejoin="round" stroke-miterlimit="10" stroke-width="3" d="M37.482 85.738s-1.1-9.4-4.1-11.8M45.182 90.138s.9-9.8-1-12.4"/>
  <path stroke="#00ff7f" stroke-linecap="round" stroke-linejoin="round" stroke-miterlimit="10" stroke-width="3" d="M26.482 44.938l-16-10.3c-8.5-5.5-10.8-16.9-5-25.2 5.8-8.3 17.4-10.1 25.4-3.9 0 0 11.8 8.2 15.1 11.5.3.3 11.3 11.2 14.1 13.1 2.2 1.5 3.9 3.6 4.9 6.1 2.8 6.8 8.6 16.8 8.6 16.8 7.9 12.9 1.1 24 1.1 24 1.1 7.8.3 14.2.3 20-.4 10.5.4 28.3.3 39.6 0 2.9-2.4 5.2-5.3 5.2s-5.3-2.4-5.3-5.3l-.2-29.9c-.2-9-.8-12.4-.9-13.5-.2-4.4-4.4-4-5.2-1.3l-8.3 34.6c-.2 2.4-1.4 7.6-2.3 11.3-.5 2.3-2.7 3.7-5 3.4-2.4-.4-4.1-2.7-3.8-5.1l6.1-45.8c-5.7 3.5-7.6-4.5-7.6-4.5-7.2 6.1-11-11.1-11.8-15.7-2.3-13.3.8-25.1.8-25.1zM45.382 64.838v6.7M56.982 66.338v6.7M68.582 64.838v6.7"/>
</svg>
