<svg xmlns="http://www.w3.org/2000/svg" width="105" height="134" fill="none" viewBox="0 0 105 134">
  <path stroke="#00ff7f" stroke-linecap="round" stroke-linejoin="round" stroke-miterlimit="10" stroke-width="3" d="M38.73 31.793s11.9-17.1 13.2-18.2c1.4-1.1 11.9-8.4 14.7-11 2.9-2.7 6.9 5 .1 10.3l-6.8 5.3s-3.5 11.1-11.1 14.2c0 0 1.2 15.4-2.1 21M98.23 59.493c1.1-.1 2.2.3 3.4.9.8.4 1.2 1.3.8 2.1-1.9 4.5-7.8 18.4-9.9 21.1-.7.9-3.5 6.2-22.5 16.8-1.9 1.1-11.4 4.7-17.8 4.3"/>
  <path stroke="#00ff7f" stroke-linecap="round" stroke-linejoin="round" stroke-miterlimit="10" stroke-width="3" d="M60.23 41.693s22.1-3.5 24.3-2.4c3.9 2.1 11.5 7.7 11.8 9.2.6 3.9 1.9 7.5 2.6 9.2.3.6 0 1.3-.5 1.7-2.5 1.7-9.5 4.8-14.1-8.1 0 0-4.1 1.5-8.6-.8 0 0-5.9 5.9-11.9 3.8 0 0 7.8 6.2 2.8 14.4 0 0 8.7 2.2 9.5 8.5 0 0 4.1-5.1 10.1-4.8 1.1-3.5 1.4-9.5 7.6-11.4M21.43 88.293s6.4-60.7 9.6-64l5.6-11.8c.2-.4.5-.6.9-.6 1.3-.1 4.3.1 4.9 3.3 1.1 6.3-3.8 14-3.8 14 .3 2.8.3 10.1-2.9 13.7 1.6 2.9 3.7 9.9.4 13.8M76.23 82.693c.3-1.5.4-3.3-.1-5.4"/>
  <path stroke="#00ff7f" stroke-linecap="round" stroke-linejoin="round" stroke-miterlimit="10" stroke-width="3" d="M57.13 53.593l3.1-11.9c.7-2.6 10.7-8.7 14.8-17 0 0 17.2-7.4 10.8-14.7-.3-.3-.8-.5-1.2-.3-2 .9-8.1 3.6-11.5 5.7-3 1.9-8.2 6.7-8.2 6.7s-9.3 7.2-12.9 8.2M21.43 88.293l-14 12.9c-7.4 6.8-7.7 18.5-.5 25.6 3.5 3.5 8 5.2 12.6 5.2 4.8 0 9.5-1.9 13.1-5.7l19.8-21.6"/>
</svg>
