<svg xmlns="http://www.w3.org/2000/svg" width="83" height="143" fill="none" viewBox="0 0 83 143">
  <g clip-path="url(#clip0_2_10)">
    <path stroke="#00ff7f" stroke-linecap="round" stroke-linejoin="round" stroke-miterlimit="10" stroke-width="3" d="M12.9 33.7s1-6.8 7.8-9.7c6.8-2.9 12.5-6.4 12.5-6.4s5-2.6 7.4 3.3c3.3 8.2 5.7 13.1 7 17.3 1.5 4.4 2.8 10.6 1.5 15.6-1.7 6.6-3.7 6.3-9 6M49.5 51.3s4.6.9 7.7-2.8"/>
    <path stroke="#00ff7f" stroke-linecap="round" stroke-linejoin="round" stroke-miterlimit="10" stroke-width="3" d="M23.1 22.9s-2.3-5.6 3.2-8.1S45.4 7 45.4 7s2.5-1.9 4.1 2.6M62.8 11.5S54.9-9.3 39.3 9.1M55.9 26.5s2.1 5.4 4.3 15.8"/>
    <path stroke="#00ff7f" stroke-linecap="round" stroke-linejoin="round" stroke-miterlimit="10" stroke-width="3" d="M21.3 54.1c1-2.8 0-7-.8-8 3.3-1.1 4.6-2.9 4.6-2.9.2 3.5 4.7 7 6.4 7.1.8 0-7.7 9.7 1.2 14.9 1.3.8 3.1.6 4.1-.6 1.4-1.5 3.3-4.3 5-9.6 1.8-5.4-2.6-11.6-6.3-19.4-4-8.3-8.6-8.4-11.3-7.3-3 1.2-6.5 3.3-16 7.6-4.3 1.9-6 5.4-6.6 8.5-.6 3.4.1 6.8 1.8 9.8l21.7 39.6-1 24.1c-.5 12.8 9.7 23.5 22.6 23.5 12.8 0 23.1-10.7 22.6-23.5l-1-24.1c15.5-14 10.8-27.1 10.7-29.5-.3-4 2.1-30.3 2.2-35.4.1-3-1.2-6-3.5-8-4.2-3.7-10.8-8.8-13.6-9.2-3.5-.5-14.2-1.8-17.1-2.4-.5-.1-1 .1-1.2.5-7.6 20.3 16.4 16.4 16.4 16.4-.3 6.3 1.6 7.6 3 8.9-15.9 19-9.3 34.1-9.3 34.1"/>
  </g>
  <defs>
    <clipPath id="clip0_2_10">
      <path fill="#fff" d="M0 0h82.8v143H0z"/>
    </clipPath>
  </defs>
</svg>
