<svg xmlns="http://www.w3.org/2000/svg" width="74" height="144" fill="none" viewBox="0 0 74 144">
  <path stroke="#00ff7f" stroke-linecap="round" stroke-linejoin="round" stroke-miterlimit="10" stroke-width="3" d="M36.454 89.293s2.1 38.9 2.9 42.7c.5 2.7 2.6 7.4 8.2 3.2"/>
  <path stroke="#00ff7f" stroke-linecap="round" stroke-linejoin="round" stroke-miterlimit="10" stroke-width="3" d="M46.554 88.093l1 48.8c.1 2.7 2.2 4.8 4.9 4.8s4.9-2.2 4.9-4.9c0-6.7 0-22.2.3-25.9.4-4.9.6-25 .6-25"/>
  <path stroke="#00ff7f" stroke-linecap="round" stroke-linejoin="round" stroke-miterlimit="10" stroke-width="3" d="M57.654 134.693s4 4.2 7.6-2.5c.6-1.1.9-2.3 1.1-3.5 0 0 5.5-49.6 5.7-55.5.8-23-13.8-45.8-29.4-57.2l-14.2-10.9c-7.6-5.7-18.4-4.1-23.9 3.7s-3.3 18.6 4.7 23.7l15 9.6c3.6 1.8-13.8 20.9 2.1 47.2 0 0 .2 14 10.9 14.9M41.554 74.393v6.2M52.454 75.793v6.2M63.354 74.393v6.2"/>
</svg>
