<svg xmlns="http://www.w3.org/2000/svg" width="56" height="144" fill="none" viewBox="0 0 56 144">
  <path stroke="#00ff7f" stroke-linecap="round" stroke-linejoin="round" stroke-miterlimit="10" stroke-width="3" d="M35.6 49.138s.3-3.1.2-8.3c-.1-5.8.2-8.3.6-14.5.2-2.6.5-12.3.6-17.9.1-2.3 2-4.2 4.4-4.1 2.2.1 3.9 1.9 4 4.1.1 3.1.2 7.1.3 7.8.8 8.4.5 16 .6 16.4.2 4.5.6 28.8.6 28.8"/>
  <path stroke="#00ff7f" stroke-linecap="round" stroke-linejoin="round" stroke-miterlimit="10" stroke-width="3" d="M11.6 105.838c-7.1-11-7.9-16.9-8.6-24-.7-7.1-3.7-16.4 1.8-23.1 5.5-6.7 10.3-11 15.4-11.5s3-1.3 3-1.3 2.6-9.7 3.7-14.8c1.3-5.9.6-4.2 4.8-13.9 1.5-3.4 4.6-9.6 6.7-13.5 1.1-2 3.6-2.8 5.5-1.7l.1.1c2 1.1 2.7 3.7 1.5 5.6"/>
  <path stroke="#00ff7f" stroke-linecap="round" stroke-linejoin="round" stroke-miterlimit="10" stroke-width="3" d="M31.4 88.238s-.6-7 5.1-10.8c2.5-1.7 4.3-1.5 4.3-1.5-1.2-2.5-1.7-4.4 0-7.2-1.8-.1-18.1-14.5-5.1-20.1 0 0 10.5 12.3 12.7 14.2 0 0 2.3 7.1 4.6 11.4.6 1.1.8 2.3.6 3.6-1.7 14.3-6.7 23.2-9.6 28M35.3 74.938c1.1 1.2 1.4 1.4 2.4 1.8"/>
  <path stroke="#00ff7f" stroke-linecap="round" stroke-linejoin="round" stroke-miterlimit="10" stroke-width="3" d="M10.6 65.638c5.1.5 7.1-3 8.3-5.5 0 0 1 5.6 5.4 8.3 2 3.4 3.8 10.7 11.8 6.2 0 0-3.6-6.6-4.9-9.6-.4-.1-.3-2.8-3-7.3-2.5-4.4-9.9-9.9-18.2-4.8M17.3 71.138s3.1-5.4 2.9-7.5M22.2 46.838s5-1.4 7.1-.6c2.1.8 4 3.9 4 3.9M44 105.838l.7 18.1c.4 9.6-7.3 17.6-16.9 17.6-9.6 0-17.3-8-16.9-17.6l.7-18.1M22.5 87.238c3.2 1.7 6.5 9.8-1 15.2"/>
</svg>
