<svg width="87" height="144" viewBox="0 0 87 144" fill="none" xmlns="http://www.w3.org/2000/svg">
<path d="M68.2 7.90002C73.7 -3.79998 94.6 4.80003 78 15.3C94.6 19.6 79.8 39.2 69.4 23.9" stroke="#00FF7F" stroke-width="3" stroke-linecap="round" stroke-linejoin="round" stroke-dasharray="4 6"/>
<path d="M69.7 24.3C69.4 26 67.7 27.9001 66.3 28.9001C67.2 26.2001 67.7 23.2 67.1 20.3C69.5 21.9 72.5 22.5001 75.4 22.7001C73.7 23.7001 71.6 24.6 69.7 24.3Z" fill="#00FF7F"/>
<path d="M14.4001 62.9001C14.4001 62.9001 37.2001 49.3001 55.5001 56.4001C55.5001 56.4001 59.1001 62.6001 56.4001 71.9001" stroke="#00FF7F" stroke-width="3" stroke-miterlimit="10" stroke-linecap="round" stroke-linejoin="round"/>
<path d="M29.1001 71.4C50.5001 63.3 56.3002 71.8 56.3002 71.8C56.3002 71.8 59.0002 76 58.8002 83.1C58.7002 90.2 57.9001 92.4 53.7001 94.9C49.5001 97.5 40.7001 95.6 40.7001 95.6C40.7001 95.6 37.0001 92.7 40.0001 89.6C43.0001 86.4 46.5001 87.5 46.5001 87.5L45.5001 82.6C45.5001 82.6 39.0001 87.6 34.7001 83.7C34.7001 83.7 36.2001 86.6 34.8001 89.3" stroke="#00FF7F" stroke-width="3" stroke-miterlimit="10" stroke-linecap="round" stroke-linejoin="round"/>
<path d="M58.9002 81.9C58.9002 81.9 64.6002 73.3 64.9002 70.8C66.2002 59.6 60.9002 52.3 60.9002 52.3C60.9002 52.3 54.9002 52.2 55.5002 56.4" stroke="#00FF7F" stroke-width="3" stroke-miterlimit="10" stroke-linecap="round" stroke-linejoin="round"/>
<path d="M6.90015 53.3C6.90015 53.3 8.10015 35.6 7.90015 30.5C7.70015 25.4 7.70012 22.1 14.5001 16.8C21.3001 11.5 23.2001 7.80004 28.8001 6.40004C34.4001 5.00004 44.9001 4.80005 44.9001 4.80005C44.9001 4.80005 45.2001 13.3 39.5001 15.7C33.5001 18.1 29.7001 18.7001 29.7001 18.7001C29.7001 18.7001 28.3001 26.1 23.1001 29.5C23.1001 29.5 26.3001 36.7001 26.1001 43.1001" stroke="#00FF7F" stroke-width="3" stroke-miterlimit="10" stroke-linecap="round" stroke-linejoin="round"/>
<path d="M53.1 55.5C50.7 37.8 43.1 38.7001 43.1 38.7001C29.5 41.3001 15.5001 45.7 7.00007 53.3C-4.29993 63.3 7.80007 84.6 6.00007 113.6L5.90009 121.7C5.70009 133.2 15.2001 142.6 26.7001 142.3C37.9001 142 46.8001 132.7 46.5001 121.5C46.5001 121.2 46.5001 120.9 46.5001 120.7L45.6 107.3C46.6 101.1 50.4001 96.1 50.4001 96.1" stroke="#00FF7F" stroke-width="3" stroke-miterlimit="10" stroke-linecap="round" stroke-linejoin="round"/>
</svg>
