<svg width="61" height="144" viewBox="0 0 61 144" fill="none" xmlns="http://www.w3.org/2000/svg">
<path d="M44.0999 104.5C58.2999 89.1 60.8999 72.5001 58.1999 65.0001C58.1999 65.0001 57.6999 52.0001 56.2999 49.7001C56.2999 49.7001 49.4999 45.7 46.2999 57.8C44.0999 66.1 46.7999 68.4001 46.7999 68.4001C46.7999 68.4001 45.2999 72.2001 45.7999 75.9001C45.7999 75.9001 37.1999 82.1 34.3999 91.5" stroke="#ffcc00" stroke-width="3" stroke-miterlimit="10" stroke-linecap="round" stroke-linejoin="round"/>
<path d="M28.6 53.9001C30.7 48.8001 32.7 16.8001 33.5 7.00007C33.7 4.60007 32 2.60006 29.6 2.30006C27.3 2.00006 25.1 3.60006 24.7 5.90006L16.8 56.8001C16.3 48.9001 10.2 20.9001 10.1 20.3001C9.79996 17.9001 7.69996 16.2001 5.29996 16.6001C2.99996 16.9001 1.39996 19.0001 1.69996 21.3001C1.89996 22.9001 7.69996 60.0001 6.99996 62.9001C6.29996 65.8001 3.49996 68.8001 4.19996 81.9001C4.99996 97.6001 8.39996 101.7 9.69996 104.6" stroke="#ffcc00" stroke-width="3" stroke-miterlimit="10" stroke-linecap="round" stroke-linejoin="round"/>
<path d="M31.5 37.5001C31.5 37.5001 37.3 31.1 43.5 38.6C49.7 46.2 50.7 49.1 50.7 49.1" stroke="#ffcc00" stroke-width="3" stroke-miterlimit="10" stroke-linecap="round" stroke-linejoin="round"/>
<path d="M32.0999 59.6C32.0999 59.6 36.7999 52.9 36.8999 50.8C37.6999 52 39.0999 52.8 41.6999 52.8C41.5999 53.8 36.5999 64.7001 45.2999 65.0001" stroke="#ffcc00" stroke-width="3" stroke-miterlimit="10" stroke-linecap="round" stroke-linejoin="round"/>
<path d="M43.5999 38.1C43.7999 38.1 51.0999 35.3001 53.4999 43.0001C54.5999 46.8001 54.7999 49.1 54.7999 49.1" stroke="#ffcc00" stroke-width="3" stroke-miterlimit="10" stroke-linecap="round" stroke-linejoin="round"/>
<path d="M44.1 104.5L44.9 123.5C45.3 133.6 37.2 142.1 27.1 142.1C17 142.1 8.80004 133.7 9.30004 123.5L10.1 104.5" stroke="#ffcc00" stroke-width="3" stroke-miterlimit="10" stroke-linecap="round" stroke-linejoin="round"/>
<path d="M28.5999 65.0001C28.5999 65.0001 34.7999 63.2 38.2999 69.1C41.7999 75 42.5999 78.8001 42.5999 78.8001" stroke="#ffcc00" stroke-width="3" stroke-miterlimit="10" stroke-linecap="round" stroke-linejoin="round"/>
<path d="M40.2999 60.7001C40.2999 60.7001 37.6999 61.8001 36.5999 66.5001" stroke="#ffcc00" stroke-width="3" stroke-miterlimit="10" stroke-linecap="round" stroke-linejoin="round"/>
<path d="M22.2999 83.4001C25.5999 85.2001 29.1 93.8001 21.2 99.4001" stroke="#ffcc00" stroke-width="3" stroke-miterlimit="10" stroke-linecap="round" stroke-linejoin="round"/>
</svg>
