<svg width="63" height="144" viewBox="0 0 63 144" fill="none" xmlns="http://www.w3.org/2000/svg">
<path d="M45.6001 40.0999L43.1001 53.4" stroke="#ffcc00" stroke-width="3" stroke-miterlimit="10" stroke-linecap="round" stroke-linejoin="round"/>
<path d="M28.8999 40.4999L30.1999 50.5999" stroke="#ffcc00" stroke-width="3" stroke-miterlimit="10" stroke-linecap="round" stroke-linejoin="round"/>
<path d="M15.3999 42.7999V50.9" stroke="#ffcc00" stroke-width="3" stroke-miterlimit="10" stroke-linecap="round" stroke-linejoin="round"/>
<path d="M46.6001 67.3999C33.3001 60.5999 22.5 86.9999 33.3 96.0999" stroke="#ffcc00" stroke-width="3" stroke-miterlimit="10" stroke-linecap="round" stroke-linejoin="round"/>
<path d="M48.8001 101.8C49.3001 99.4999 56.4001 92.0999 60.1001 76.1999C61.7001 69.1999 60.9001 63.4999 54.9001 59.6999C39.3001 49.5999 29.8001 51.0999 29.8001 51.0999C21.5001 51.9999 13.0001 50.1 12.1001 51.4C11.2001 52.7 11.2001 59.5999 18.5001 62.6999C24.9001 65.4999 30.6001 64.6999 34.0001 63.5999L36.1001 68.6999" stroke="#ffcc00" stroke-width="3" stroke-miterlimit="10" stroke-linecap="round" stroke-linejoin="round"/>
<path d="M48.8 101.8L49.6 122.2C50 133.1 41.3 142.1 30.5 142.1C19.6 142.1 10.9 133 11.4 122.2L12.2 101.8C12.2 101.8 -0.700015 87.8 1.99999 69.2C2.39999 66.3 3.79999 56.9999 3.49999 53.0999C3.19999 49.9999 3.09999 19.3999 3.09999 7.39994C3.09999 4.59994 5.19999 2.39995 7.99999 2.19995C10.8 1.99995 13.2 4.09993 13.5 6.79993L15.4 42.7999C15.4 42.7999 21.3 35.6999 28.9 40.4999C28.2 34.8999 41.4 30.7999 45.6 40.0999C48.7 36.8999 60.4 43.3999 57.9 50.9999C56.8 54.3999 56.1 55.5 54.1 59.2" stroke="#ffcc00" stroke-width="3" stroke-miterlimit="10" stroke-linecap="round" stroke-linejoin="round"/>
</svg>
