<svg width="75" height="148" viewBox="0 0 75 148" fill="none" xmlns="http://www.w3.org/2000/svg">
<path d="M4.8999 6.19995H37.7999" stroke="#ffcc00" stroke-width="3" stroke-linecap="round" stroke-linejoin="round" stroke-dasharray="4 6"/>
<path d="M5.29999 6.19995C6.59999 4.89995 7.20001 2.49995 7.20001 0.699951C5.50001 2.99995 3.2 4.99995 0.5 6.19995C3.2 7.29995 5.30001 9.39995 7.20001 11.7C7.10001 9.79995 6.69999 7.49995 5.29999 6.19995Z" fill="#ffcc00"/>
<path d="M37.2999 6.19995C35.9999 4.89995 35.3999 2.49995 35.3999 0.699951C37.0999 2.99995 39.3999 4.99995 42.0999 6.19995C39.3999 7.29995 37.2999 9.39995 35.3999 11.7C35.5999 9.79995 35.9999 7.49995 37.2999 6.19995Z" fill="#ffcc00"/>
<path d="M59.2001 51.7L56.9001 63.9999" stroke="#ffcc00" stroke-width="3" stroke-miterlimit="10" stroke-linecap="round" stroke-linejoin="round"/>
<path d="M43.8 52.1L44.9001 61.4" stroke="#ffcc00" stroke-width="3" stroke-miterlimit="10" stroke-linecap="round" stroke-linejoin="round"/>
<path d="M31.3 54.2V61.7" stroke="#ffcc00" stroke-width="3" stroke-miterlimit="10" stroke-linecap="round" stroke-linejoin="round"/>
<path d="M60.2003 77C47.9003 70.7 37.9003 95.1 47.9003 103.5" stroke="#ffcc00" stroke-width="3" stroke-miterlimit="10" stroke-linecap="round" stroke-linejoin="round"/>
<path d="M50.3 78.2L48.3 73.4001C45.2 74.4001 39.9 75.1 34 72.5C27.3 69.5 27.2 63.2 28.1 62C29 60.7 36.8 62.5 44.5 61.7C44.5 61.7 53.3 60.3 67.8 69.7C73.4 73.3 74.2 78.6 72.6 85C69.2 99.8 62.6 106.5 62.2 108.7" stroke="#ffcc00" stroke-width="3" stroke-miterlimit="10" stroke-linecap="round" stroke-linejoin="round"/>
<path d="M62.2001 108.8L63.0001 127.7C63.4001 137.8 55.4001 146.1 45.3001 146.1C35.2001 146.1 27.2001 137.7 27.6001 127.7L28.4002 108.8C28.4002 108.8 16.4001 95.9 19.0001 78.7C19.4001 76 20.7001 67.4 20.3001 63.8C20.0001 60.9 19.9002 32.6 19.9002 21.5C19.9002 19 21.9002 16.9 24.4002 16.7C27.0002 16.5 29.2001 18.4 29.5001 21L31.2001 54.3C31.2001 54.3 36.6001 47.7 43.7001 52.1C43.1001 46.9 55.3001 43.1 59.2001 51.8C62.0001 48.8 72.9001 54.9 70.6001 61.9C69.5001 65 69.0001 66 67.1001 69.4" stroke="#ffcc00" stroke-width="3" stroke-miterlimit="10" stroke-linecap="round" stroke-linejoin="round"/>
</svg>
