<svg width="76" height="146" viewBox="0 0 76 146" fill="none" xmlns="http://www.w3.org/2000/svg">
<path d="M44.2 106.5C58.4 91.1 61 74.5001 58.3 67.0001C58.3 67.0001 57.8 54.0001 56.4 51.7001C56.4 51.7001 49.6 47.7 46.4 59.8C44.2 68.1 46.9 70.4001 46.9 70.4001C46.9 70.4001 45.4 74.2001 45.9 77.9001C45.9 77.9001 37.3 84.1 34.5 93.5" stroke="#ffcc00" stroke-width="3" stroke-miterlimit="10" stroke-linecap="round" stroke-linejoin="round"/>
<path d="M28.7001 55.9001C30.8001 50.8001 32.8 18.8001 33.6 9.00007C33.8 6.60007 32.1001 4.60006 29.7001 4.30006C27.4001 4.00006 25.2001 5.60006 24.8001 7.90006L16.9001 58.8001C16.4001 50.9001 10.3001 22.9001 10.2001 22.3001C9.90008 19.9001 7.80009 18.2001 5.40009 18.6001C3.10009 18.9001 1.50006 21.0001 1.80006 23.3001C2.00006 24.9001 7.80004 62.0001 7.10004 64.9001C6.40004 67.8001 3.60006 70.8001 4.30006 83.9001C5.10006 99.6001 8.50006 103.7 9.80006 106.6" stroke="#ffcc00" stroke-width="3" stroke-miterlimit="10" stroke-linecap="round" stroke-linejoin="round"/>
<path d="M31.6001 39.5001C31.6001 39.5001 37.4001 33.1 43.6001 40.6C49.8001 48.2 50.8001 51.1 50.8001 51.1" stroke="#ffcc00" stroke-width="3" stroke-miterlimit="10" stroke-linecap="round" stroke-linejoin="round"/>
<path d="M32.2002 61.6C32.2002 61.6 36.9002 54.9 37.0002 52.8C37.8002 54 39.2002 54.8 41.8002 54.8C41.7002 55.8 36.7002 66.7001 45.4002 67.0001" stroke="#ffcc00" stroke-width="3" stroke-miterlimit="10" stroke-linecap="round" stroke-linejoin="round"/>
<path d="M43.6001 40.1C43.8001 40.1 51.1001 37.3001 53.5001 45.0001C54.6001 48.8001 54.8001 51.1 54.8001 51.1" stroke="#ffcc00" stroke-width="3" stroke-miterlimit="10" stroke-linecap="round" stroke-linejoin="round"/>
<path d="M44.2001 106.5L45.0001 125.5C45.4001 135.6 37.3001 144.1 27.2001 144.1C17.1001 144.1 8.90013 135.7 9.40013 125.5L10.2001 106.5" stroke="#ffcc00" stroke-width="3" stroke-miterlimit="10" stroke-linecap="round" stroke-linejoin="round"/>
<path d="M28.7002 67.0001C28.7002 67.0001 34.9002 65.2 38.4002 71.1C41.9002 77 42.7002 80.8001 42.7002 80.8001" stroke="#ffcc00" stroke-width="3" stroke-miterlimit="10" stroke-linecap="round" stroke-linejoin="round"/>
<path d="M40.4002 62.7001C40.4002 62.7001 37.8002 63.8001 36.7002 68.5001" stroke="#ffcc00" stroke-width="3" stroke-miterlimit="10" stroke-linecap="round" stroke-linejoin="round"/>
<path d="M22.4001 85.3C25.7001 87.1 29.2001 95.6 21.4001 101.3" stroke="#ffcc00" stroke-width="3" stroke-miterlimit="10" stroke-linecap="round" stroke-linejoin="round"/>
<path d="M62.9001 6.20001C34.0001 0.900011 49.2001 37.6 74.4001 15.5" stroke="#ffcc00" stroke-width="3" stroke-linecap="round" stroke-linejoin="round" stroke-dasharray="4 6"/>
<path d="M62.5001 6.10007C61.0001 7.10007 60.0001 9.40007 59.6001 11.1001C61.7001 9.10007 64.3001 7.60005 67.1001 6.90005C64.6001 5.30005 62.9001 2.90005 61.5001 0.300049C61.4001 2.30005 61.4001 4.50007 62.5001 6.10007Z" fill="#ffcc00"/>
</svg>
