<svg width="109" height="146" viewBox="0 0 109 146" fill="none" xmlns="http://www.w3.org/2000/svg">
<path d="M80.8999 4.19995L105.2 18.9999" stroke="#00FF7F" stroke-width="3" stroke-linecap="round" stroke-linejoin="round" stroke-dasharray="4 6"/>
<path d="M81.2998 4.39993C82.9998 3.99993 84.7998 2.19995 85.7998 0.699951C83.0998 1.79995 80.1998 2.29993 77.2998 1.89993C78.9998 4.19993 79.7997 7.19994 80.0997 9.99994C80.8997 8.39994 81.6998 6.29993 81.2998 4.39993Z" fill="#00FF7F"/>
<path d="M104.8 18.7999C104.4 17.0999 105.2 14.6 106 13.2C106.3 16.1 107.1 18.9999 108.8 21.2999C105.9 20.7999 103 21.4999 100.3 22.4999C101.4 20.8999 103 19.2999 104.8 18.7999Z" fill="#00FF7F"/>
<path d="M46.7 61.9C46.7 61.9 64.6 64.5 67.9 64.9C71.3 65.4 71.0999 67.3 71.0999 75.1C71.0999 82.9 73.4999 89.1 70.5999 92.4C67.6999 95.7 65.4 101 65.4 101C65.4 101 60.0999 100.8 60.0999 97.3" stroke="#00FF7F" stroke-width="3" stroke-miterlimit="10" stroke-linecap="round" stroke-linejoin="round"/>
<path d="M47.5 67.2999C47.5 67.2999 59.7 71.2999 63 71.2999C66.3 71.2999 69.1 72.7999 68.7 78.4999C68.3 84.1999 67.8 88.2 67.8 88.2C67.8 88.2 68.1 91 65.2 93.2C62.3 95.5 58.9 98.2 58.9 98.2C58.9 98.2 50.8 94 61.2 87.9C61.2 87.9 57.8 84 60.3 80.2C60.3 80.2 56.1 82.2999 52.1 80.0999C52.1 80.0999 53.6 86.9 50.2 90.7C50.2 90.7 57.4 106 45 111.4" stroke="#00FF7F" stroke-width="3" stroke-miterlimit="10" stroke-linecap="round" stroke-linejoin="round"/>
<path d="M71.0999 71.3C71.0999 71.3 75.2999 66.9 78.9999 70.5C81.6999 73 76.1999 80.5 71.7999 84.4" stroke="#00FF7F" stroke-width="3" stroke-miterlimit="10" stroke-linecap="round" stroke-linejoin="round"/>
<path d="M61.8999 100.1C61.8999 100.1 60.0998 120.9 43.2999 125.7L31.1999 138.8C24.7999 145.8 13.7998 146 7.09984 139.3C0.399837 132.6 0.599837 121.7 7.59984 115.2L20.6999 103.1C20.6999 103.1 24.3999 98.6 26.3999 92C28.3999 85.4 29.1998 66.6 30.7998 62.8C32.2998 59 33.7998 55.7 33.7998 55.7L36.9999 48C36.9999 48 47.9999 15.3 49.2999 10.3C50.6999 8.79996 57.9999 9.29996 54.3999 22.3L46.4999 54.9C47.5999 52.9 66.8999 6.59998 66.8999 6.59998C67.5999 6.69998 77.5999 5.59998 69.8999 22.7C69.8999 22.7 56.9999 56.1 54.1999 62.7" stroke="#00FF7F" stroke-width="3" stroke-miterlimit="10" stroke-linecap="round" stroke-linejoin="round"/>
</svg>
