<svg width="79" height="144" viewBox="0 0 79 144" fill="none" xmlns="http://www.w3.org/2000/svg">
<path d="M37.1 85.8C37.1 85.8 36 76.4 33 74" stroke="#00FF7F" stroke-width="3" stroke-miterlimit="10" stroke-linecap="round" stroke-linejoin="round"/>
<path d="M44.8 90.3C44.8 90.3 45.7 80.5 43.8 77.9" stroke="#00FF7F" stroke-width="3" stroke-miterlimit="10" stroke-linecap="round" stroke-linejoin="round"/>
<path d="M26.1001 45.1L10.1001 34.8C1.6001 29.3 -0.699896 17.9 5.1001 9.59998C10.9001 1.29998 22.4001 -0.499979 30.5001 5.70002C30.5001 5.70002 42.3001 13.9 45.6001 17.2C45.9001 17.5 56.9001 28.4 59.7001 30.3C61.9001 31.8 63.6001 33.9 64.6001 36.4C67.4001 43.2 73.2001 53.2 73.2001 53.2C81.1001 66.1 74.3001 77.2 74.3001 77.2C75.4001 85 74.6001 91.4 74.6001 97.2C74.2001 107.7 75.0001 125.5 74.9001 136.8C74.9001 139.7 72.5001 142 69.6001 142C66.7001 142 64.3001 139.6 64.3001 136.7L64.0001 106.8C63.8001 97.8 63.2001 94.4 63.1001 93.3C62.9001 88.9 58.7001 89.3 57.9001 92L49.6001 126.6C49.4001 129 48.2001 134.2 47.3001 137.9C46.8001 140.2 44.6001 141.6 42.3001 141.3C39.9001 140.9 38.2001 138.6 38.5001 136.2L44.6001 90.4C38.9001 93.9 37.0001 85.9 37.0001 85.9C29.8001 92 26.0001 74.8 25.2001 70.2C23.0001 56.9 26.1001 45.1 26.1001 45.1Z" stroke="#00FF7F" stroke-width="3" stroke-miterlimit="10" stroke-linecap="round" stroke-linejoin="round"/>
<path d="M45 65V71.7" stroke="#00FF7F" stroke-width="3" stroke-miterlimit="10" stroke-linecap="round" stroke-linejoin="round"/>
<path d="M56.6001 66.5V73.2" stroke="#00FF7F" stroke-width="3" stroke-miterlimit="10" stroke-linecap="round" stroke-linejoin="round"/>
<path d="M68.3 65V71.7" stroke="#00FF7F" stroke-width="3" stroke-miterlimit="10" stroke-linecap="round" stroke-linejoin="round"/>
</svg>
