<svg width="82" height="144" viewBox="0 0 82 144" fill="none" xmlns="http://www.w3.org/2000/svg">
<path d="M26.6001 45.1C25.7001 48.9 23.8 60.8 23.9 64.7C24.2 78.1 26.7001 87 28.7001 90.4C30.7001 93.8 35.9 95.6 35.9 95.6L31.7001 134.6C31.5001 136.9 33.2 139 35.5 139.2C37.6 139.4 39.5 138 40 136L49.1 81.3L51.3 138C51.4 140.2 53.2 141.9 55.4 141.9C57.6 141.9 59.5 140.1 59.5 137.9L60.8 77.6L70.6001 137.5C71.1001 140.3 73.8 142.1 76.5 141.4C78.9 140.8 80.4001 138.6 80.1001 136.2C78.5001 122.5 73.5001 79.9 73.7001 76.9C73.9001 73.2 75.2 57.7 69.5 48.4C63.8 39.1 50.2 21.3 46.1 17.2" stroke="#ffcc00" stroke-width="3" stroke-miterlimit="10" stroke-linecap="round" stroke-linejoin="round"/>
<path d="M35.6001 78.6C35.6001 78.6 37.5001 88.8 35.8001 95.6" stroke="#ffcc00" stroke-width="3" stroke-miterlimit="10" stroke-linecap="round" stroke-linejoin="round"/>
<path d="M26.6001 45.1L10.6001 34.8C2.1001 29.3 -0.199896 17.9 5.6001 9.59998C11.4001 1.29998 22.9001 -0.499979 31.0001 5.70002L46.1001 17.2" stroke="#ffcc00" stroke-width="3" stroke-miterlimit="10" stroke-linecap="round" stroke-linejoin="round"/>
<path d="M43 66.4V73" stroke="#ffcc00" stroke-width="3" stroke-miterlimit="10" stroke-linecap="round" stroke-linejoin="round"/>
<path d="M54.7002 67.9V74.6" stroke="#ffcc00" stroke-width="3" stroke-miterlimit="10" stroke-linecap="round" stroke-linejoin="round"/>
<path d="M66.3 66.4V73" stroke="#ffcc00" stroke-width="3" stroke-miterlimit="10" stroke-linecap="round" stroke-linejoin="round"/>
</svg>
