<svg width="61" height="144" viewBox="0 0 61 144" fill="none" xmlns="http://www.w3.org/2000/svg">
<path d="M13.1999 106.1C5.3999 98.1 2.59988 82.8 5.79988 62.6L1.59989 24.3C1.39989 22.6 2.59988 20.9 4.29988 20.6C6.09988 20.3 8.29986 21.1 8.59986 22.9C9.69986 29.3 15.1999 57.4 14.5999 58.6C14.5999 58.6 22.3999 48.8 25.0999 47.5C25.0999 47.5 25.7999 9.30004 25.6999 6.40004C25.5999 4.20004 27.1999 2.29999 29.3999 2.09999C31.6999 1.89999 33.6999 3.5 33.8999 5.8C34.3999 10.6 34.5999 17.3 34.7999 19.7C34.9999 23 34.8999 44.8 34.8999 44.8C34.8999 44.8 37.1999 44.8 37.9999 46.4C38.7999 48 38.8999 47.9 38.8999 47.9L45.5999 10.2C45.9999 8.00003 48.1999 6.50001 50.3999 7.00001C52.3999 7.50001 53.6999 9.50001 53.3999 11.5L48.3999 53C48.3999 53 51.0999 60 54.1999 62.4C57.2999 64.8 58.3999 65.4 58.4999 70C58.5999 74.6 59.1999 94.2 45.6999 106.1" stroke="#00FF7F" stroke-width="3" stroke-miterlimit="10" stroke-linecap="round" stroke-linejoin="round"/>
<path d="M25.2 47.5C25.2 47.5 32.5999 44.8 34.9999 44.8C37.2999 44.8 38.2999 46 38.9999 47.9C39.6999 49.8 42.7 55.2 42.7 55.2" stroke="#00FF7F" stroke-width="3" stroke-miterlimit="10" stroke-linecap="round" stroke-linejoin="round"/>
<path d="M45.9999 70.4C45.0999 71.7 42.1999 74.1 38.6999 71.2C33.1999 66.6 35.2999 61.6 35.2999 61.6C35.2999 61.6 31.7999 61 31.8999 56.8C31.5999 58.7 29.7999 64.3 22.0999 65.1" stroke="#00FF7F" stroke-width="3" stroke-miterlimit="10" stroke-linecap="round" stroke-linejoin="round"/>
<path d="M48.6998 53.7C33.6998 56.2 44.4998 70.2 47.3998 71.4C47.3998 71.4 44.6998 74.5 45.5998 78C45.5998 78 35.1998 78.4 34.7998 89.5" stroke="#00FF7F" stroke-width="3" stroke-miterlimit="10" stroke-linecap="round" stroke-linejoin="round"/>
<path d="M45.7998 106.1L46.4998 124.3C46.8998 134 39.1998 142 29.4998 142C19.7998 142 12.0998 133.9 12.4998 124.3L13.1998 106.1" stroke="#00FF7F" stroke-width="3" stroke-miterlimit="10" stroke-linecap="round" stroke-linejoin="round"/>
</svg>
