<svg width="105" height="134" viewBox="0 0 105 134" fill="none" xmlns="http://www.w3.org/2000/svg">
<path d="M39.5 31.8C39.5 31.8 51.4 14.7 52.7 13.6C54.1 12.5 64.6 5.19997 67.4 2.59997C70.3 -0.100031 74.3 7.60002 67.5 12.9C60.7 18.2 60.7 18.2 60.7 18.2C60.7 18.2 57.2 29.3 49.6 32.4C49.6 32.4 50.8 47.8 47.5 53.4" stroke="#ffcc00" stroke-width="3" stroke-miterlimit="10" stroke-linecap="round" stroke-linejoin="round"/>
<path d="M99 59.5C100.1 59.4 101.2 59.8 102.4 60.4C103.2 60.8 103.6 61.7 103.2 62.5C101.3 67 95.4 80.9 93.3 83.6C92.6 84.5 89.8 89.8 70.8 100.4C68.9 101.5 59.4 105.1 53 104.7" stroke="#ffcc00" stroke-width="3" stroke-miterlimit="10" stroke-linecap="round" stroke-linejoin="round"/>
<path d="M60.9001 41.7C60.9001 41.7 83.0001 38.2 85.2001 39.3C89.1001 41.4 96.7001 47 97.0001 48.5C97.6001 52.4 98.9001 56 99.6001 57.7C99.9001 58.3 99.6001 59 99.1001 59.4C96.6001 61.1 89.6001 64.2 85.0001 51.3C85.0001 51.3 80.9001 52.8 76.4001 50.5C76.4001 50.5 70.5001 56.4 64.5001 54.3C64.5001 54.3 72.3001 60.5 67.3001 68.7C67.3001 68.7 76.0001 70.9 76.8001 77.2C76.8001 77.2 80.9001 72.1 86.9001 72.4C88.0001 68.9 88.3001 62.9 94.5001 61" stroke="#ffcc00" stroke-width="3" stroke-miterlimit="10" stroke-linecap="round" stroke-linejoin="round"/>
<path d="M22.1001 88.3C22.1001 88.3 28.5001 27.6 31.7001 24.3L37.4001 12.5C37.6001 12.1 37.9001 11.9 38.3001 11.9C39.6001 11.8 42.6001 12 43.2001 15.2C44.3001 21.5 39.4001 29.2 39.4001 29.2C39.7001 32 39.7001 39.3 36.5001 42.9C38.1001 45.8 40.2001 52.8 36.9001 56.7" stroke="#ffcc00" stroke-width="3" stroke-miterlimit="10" stroke-linecap="round" stroke-linejoin="round"/>
<path d="M76.9001 82.7C77.2001 81.2 77.3 79.4 76.8 77.3" stroke="#ffcc00" stroke-width="3" stroke-miterlimit="10" stroke-linecap="round" stroke-linejoin="round"/>
<path d="M57.8002 53.6L60.9002 41.7C61.6002 39.1 71.6002 33 75.7002 24.7C75.7002 24.7 92.9002 17.3 86.5002 10C86.2002 9.7 85.7002 9.50002 85.3002 9.70002C83.3002 10.6 77.2002 13.3 73.8002 15.4C70.8002 17.3 65.6002 22.1 65.6002 22.1C65.6002 22.1 56.3002 29.3 52.7002 30.3" stroke="#ffcc00" stroke-width="3" stroke-miterlimit="10" stroke-linecap="round" stroke-linejoin="round"/>
<path d="M22.1 88.3L8.20006 101.1C0.800056 107.9 0.500056 119.6 7.70006 126.7C11.2001 130.2 15.7 131.9 20.3 131.9C25.1 131.9 29.8001 130 33.4001 126.2L53.2001 104.6" stroke="#ffcc00" stroke-width="3" stroke-miterlimit="10" stroke-linecap="round" stroke-linejoin="round"/>
</svg>
