<svg width="84" height="143" viewBox="0 0 84 143" fill="none" xmlns="http://www.w3.org/2000/svg">
<path d="M13.8999 33.7C13.8999 33.7 14.8999 26.9 21.6999 24C28.4999 21.2 34.1999 17.6 34.1999 17.6C34.1999 17.6 39.1999 15 41.5999 20.9C44.8999 29.1 47.2999 34 48.5999 38.2C50.0999 42.6 51.3999 48.8 50.0999 53.8C48.3999 60.4 46.3999 60.1 41.0999 59.8" stroke="#00FF7F" stroke-width="3" stroke-miterlimit="10" stroke-linecap="round" stroke-linejoin="round"/>
<path d="M50.5 51.3C50.5 51.3 55.1 52.2 58.2 48.5" stroke="#00FF7F" stroke-width="3" stroke-miterlimit="10" stroke-linecap="round" stroke-linejoin="round"/>
<path d="M24.0999 22.9001C24.0999 22.9001 21.7999 17.3001 27.2999 14.8001C32.7999 12.3001 46.4999 7.00006 46.4999 7.00006C46.4999 7.00006 48.9999 5.10006 50.5999 9.60006" stroke="#00FF7F" stroke-width="3" stroke-miterlimit="10" stroke-linecap="round" stroke-linejoin="round"/>
<path d="M63.8 11.5C63.8 11.5 55.9 -9.29999 40.3 9.10001" stroke="#00FF7F" stroke-width="3" stroke-miterlimit="10" stroke-linecap="round" stroke-linejoin="round"/>
<path d="M56.8999 26.5C56.8999 26.5 58.9999 31.9 61.1999 42.3" stroke="#00FF7F" stroke-width="3" stroke-miterlimit="10" stroke-linecap="round" stroke-linejoin="round"/>
<path d="M22.3 54.1C23.3 51.3 22.3 47.1 21.5 46.1C24.8 45 26.1 43.2 26.1 43.2C26.3 46.7 30.8 50.2 32.5 50.3C33.3 50.3 24.8 60 33.7 65.2C35 66 36.8 65.8 37.8 64.6C39.2 63.1 41.1 60.3 42.8 55C44.6 49.6 40.2 43.4 36.5 35.6C32.5 27.3 27.9 27.2 25.2 28.3C22.2 29.5 18.7 31.6 9.19996 35.9C4.89996 37.8 3.19996 41.3 2.59996 44.4C1.99996 47.8 2.69996 51.2 4.39996 54.2L26.1 93.8L25.1 117.9C24.6 130.7 34.8 141.4 47.7 141.4C60.5 141.4 70.8 130.7 70.3 117.9L69.3 93.8C84.8 79.8 80.1 66.7 80 64.3C79.7 60.3 82.1 34 82.2 28.9C82.3 25.9 81 22.9 78.7 20.9C74.5 17.2 67.9 12.1 65.1 11.7C61.6 11.2 50.9 9.90002 48 9.30002C47.5 9.20002 47 9.40002 46.8 9.80002C39.2 30.1 63.2 26.2 63.2 26.2C62.9 32.5 64.8 33.8 66.2 35.1C50.3 54.1 56.9 69.2 56.9 69.2" stroke="#00FF7F" stroke-width="3" stroke-miterlimit="10" stroke-linecap="round" stroke-linejoin="round"/>
</svg>
