<svg width="100" height="134" viewBox="0 0 100 134" fill="none" xmlns="http://www.w3.org/2000/svg">
<path d="M23.5 85.3C23.5 85.3 24.8 80.4 24 69.5C23.2 59.2 30.3 49.8 30.3 49.8C30.3 49.8 35.3 25.3 37.2 18.9C37.9 16.4 39.3 8.89999 40.1 7.49999C41.6 4.99999 46.5 9.19997 45.9 15.6C45.2 24.4 41.2 48.2 38.6 52.7L45.5 38.1C45.5 38.1 58.3 17.1 59 14.9C59.7 12.7 65.5 3.90002 66.8 2.40002C68.1 0.900015 72.6 3.19998 71.6 9.29998C70.7 14.7 67.7 17.9 67.7 17.9C67.7 17.9 65.8 21.1 64.9 23.7C64.4 25.2 60.3 35.6 56.1 44.1C56.1 44.1 63.4 41.7 65.4 41.5C67.4 41.3 66.7 41 66.7 41C66.7 41 69.5 36.9 71.1 34.6C74.3 29.8 85.6 16.5 86.7 15.1C88.3 13 91.8 10.7 91.8 10.7C98.1 15.2 91.3 23.7 89.4 25.9C89.4 26.9 82.2 40.7 78.3 44.5C78.3 44.5 87.8 52.5 88.8 55.7C89.8 58.9 92 64.4 91.8 65.4C91.8 65.4 96.8 66.2999 98.4 68.6999C98.4 68.6999 92.3 84.7 91.4 85.8C84.6 94.3 62.2 113.2 49.1 111.1" stroke="#ffcc00" stroke-width="3" stroke-miterlimit="10" stroke-linecap="round" stroke-linejoin="round"/>
<path d="M91.4 66.2C85 73.7 77.1 57.6 77.1 57.6C69.8 54.6 69.2 52.4 69.2 52.4C64 56.9 57.9 55.9 54.7 54.9" stroke="#ffcc00" stroke-width="3" stroke-miterlimit="10" stroke-linecap="round" stroke-linejoin="round"/>
<path d="M71.3 54.6C69.4 57 67.6 60.1 67.6 60.1C68 64.1 67.9 67.9 63 73.1C72.5 72.7 72 84.3 72 84.3C72 84.3 73.9 81 80.9 82.2C80.9 82.2 80.8 74.6 88.5 68.1" stroke="#ffcc00" stroke-width="3" stroke-miterlimit="10" stroke-linecap="round" stroke-linejoin="round"/>
<path d="M66.5 41.1C66.5 41.1 72.1 40.5 77.6 43.7" stroke="#ffcc00" stroke-width="3" stroke-miterlimit="10" stroke-linecap="round" stroke-linejoin="round"/>
<path d="M23.5001 85.3L8.60006 99C0.700064 106.3 0.400064 118.7 8.00006 126.3C15.6001 133.9 28.0001 133.7 35.3001 125.7L49.0001 110.8" stroke="#ffcc00" stroke-width="3" stroke-miterlimit="10" stroke-linecap="round" stroke-linejoin="round"/>
<path d="M56.2 43.9L52.8 48.4" stroke="#ffcc00" stroke-width="3" stroke-miterlimit="10" stroke-linecap="round" stroke-linejoin="round"/>
</svg>
