<svg width="107" height="114" viewBox="0 0 107 114" fill="none" xmlns="http://www.w3.org/2000/svg">
<path d="M41.6001 28C41.6001 28 46.8001 16.5 47.4001 14.1C48.1001 11.7 51.1001 7.2 60.4001 7.2C66.7001 7.2 73.5001 5.19997 77.3001 3.79997C79.3001 3.09997 81.4001 2.99996 83.5001 3.59996C86.4001 4.39996 90.5001 5.39998 92.6001 5.49998C96.0001 5.59998 101.5 8.09996 101.5 8.09996C101.5 8.09996 102.1 16.9 91.9001 12.7" stroke="#00FF7F" stroke-width="3" stroke-miterlimit="10" stroke-linecap="round" stroke-linejoin="round"/>
<path d="M57.5 7.29997C57.5 7.29997 66.7 -1.80003 78.5 3.29997" stroke="#00FF7F" stroke-width="3" stroke-miterlimit="10" stroke-linecap="round" stroke-linejoin="round"/>
<path d="M101.5 12.1C103.5 13.5 104.3 14.8 104.3 14.8C99.5999 21.1 91.8999 17.9 88.8999 16.3" stroke="#00FF7F" stroke-width="3" stroke-miterlimit="10" stroke-linecap="round" stroke-linejoin="round"/>
<path d="M22.5 65.5C24.6 64.2 31.3 45.8 31.3 45.8C31.3 45.8 32.9 33.9 37.9 30.9C42.9 28 48.5 17.9 53.2 15C56.1 13.2 59.7 13.7 66.6 11.5C73.5 9.40002 79.9 8.30002 81.3 8.00002C82.8 7.70002 92.6 8.80001 92.6 8.80001C92.6 8.80001 93.5 20.2 76.4 17.8C76.4 17.8 68.9 23.6 61.9 23.4L54.3 33.3" stroke="#00FF7F" stroke-width="3" stroke-miterlimit="10" stroke-linecap="round" stroke-linejoin="round"/>
<path d="M47.8999 91C54.6999 91.4 68.6999 78.4 71.7999 75C74.8999 71.5 81.0999 68.3 85.3999 65.8C89.7999 63.3 94.4999 57.5 95.5999 55.3C97.4999 51.7 104.9 42.2 104.9 42.2C95.1999 35.9 88.4999 43.3 85.0999 48.3C82.1999 52.6 77.3999 55.3 72.1999 55.2C71.5999 55.2 71.0999 55.1 70.4999 55.1C65.6999 54.3 61.5999 49.4 61.5999 49.4C62.8999 40.7 59.4999 33.9 59.4999 33.9C63.5999 31.2 65.8999 25.5 66.6999 22.9" stroke="#00FF7F" stroke-width="3" stroke-miterlimit="10" stroke-linecap="round" stroke-linejoin="round"/>
<path d="M22.5 65.5L7.69999 79.1C-0.200007 86.4 -0.400013 98.7 7.09999 106.3C14.7 113.9 27 113.6 34.3 105.7L47.9 90.9" stroke="#00FF7F" stroke-width="3" stroke-miterlimit="10" stroke-linecap="round" stroke-linejoin="round"/>
<path d="M46.2 48.7C48.9 51.8 50.8999 55.8 51.5999 60.2C52.4999 66.7 50.6999 73 46.7999 77.6" stroke="#00FF7F" stroke-width="3" stroke-miterlimit="10" stroke-linecap="round" stroke-linejoin="round"/>
</svg>
