<svg width="74" height="144" viewBox="0 0 74 144" fill="none" xmlns="http://www.w3.org/2000/svg">
<path d="M36.7 89.5C36.7 89.5 38.7999 128.4 39.5999 132.2C40.0999 134.9 42.1999 139.6 47.7999 135.4" stroke="#ffcc00" stroke-width="3" stroke-miterlimit="10" stroke-linecap="round" stroke-linejoin="round"/>
<path d="M46.8 88.2L47.8 137C47.9 139.7 50.0001 141.8 52.7001 141.8C55.4001 141.8 57.6 139.6 57.6 136.9C57.6 130.2 57.6001 114.7 57.9001 111C58.3001 106.1 58.5001 86 58.5001 86" stroke="#ffcc00" stroke-width="3" stroke-miterlimit="10" stroke-linecap="round" stroke-linejoin="round"/>
<path d="M58 134.9C58 134.9 62 139.1 65.6 132.4C66.2 131.3 66.5 130.1 66.7 128.9C66.7 128.9 72.2 79.3 72.4 73.4C73.2 50.3 58.6 27.6 42.9 16.1L28.7 5.3C21.1 -0.5 10.3 1.20001 4.8 9.00001C-0.699997 16.8 1.50001 27.6 9.50001 32.7L24.5 42.3C28.1 44.1 10.7 63.2 26.6 89.5C26.6 89.5 26.8 103.5 37.5 104.4" stroke="#ffcc00" stroke-width="3" stroke-miterlimit="10" stroke-linecap="round" stroke-linejoin="round"/>
<path d="M41.8 74.5V80.7" stroke="#ffcc00" stroke-width="3" stroke-miterlimit="10" stroke-linecap="round" stroke-linejoin="round"/>
<path d="M52.7 75.9V82.2" stroke="#ffcc00" stroke-width="3" stroke-miterlimit="10" stroke-linecap="round" stroke-linejoin="round"/>
<path d="M63.6001 74.5V80.7" stroke="#ffcc00" stroke-width="3" stroke-miterlimit="10" stroke-linecap="round" stroke-linejoin="round"/>
</svg>
