<svg width="112" height="134" viewBox="0 0 112 134" fill="none" xmlns="http://www.w3.org/2000/svg">
<path d="M71.5999 88.6999C71.1999 83.5999 75.2999 81 83.1999 71.9C91.0999 62.8 104.8 36.4 104.8 36.4C108.3 31.8 110 28.8 110 28.8C110 28.8 109.3 24.7 101.3 25.2C90.4999 25.9 86.4999 39.6 86.4999 39.6C86.1999 40.1 84.1999 45.4 78.6999 47.1C72.8999 48.8 71.3999 53.1 71.3999 53.1" stroke="#00FF7F" stroke-width="3" stroke-miterlimit="10" stroke-linecap="round" stroke-linejoin="round"/>
<path d="M60.8999 32.3C60.8999 32.3 61.8999 39.3 62.4999 41.6C63.7999 46.5 66.0999 55.1 58.1999 56.1C55.8999 56.4 53.5999 56.2 52.8999 54C50.8999 48.3 47.4999 38.2 47.1999 35.9C46.3999 30 47.0999 21 47.0999 21" stroke="#00FF7F" stroke-width="3" stroke-miterlimit="10" stroke-linecap="round" stroke-linejoin="round"/>
<path d="M54.2001 56.3C54.2001 56.3 55.6001 61 49.9001 62.6C44.4001 64.1 38.7001 49.5 38.3001 48.4C36.1001 42.4 36.1001 28.2 36.1001 28.2" stroke="#00FF7F" stroke-width="3" stroke-miterlimit="10" stroke-linecap="round" stroke-linejoin="round"/>
<path d="M44.5 59.9C44.5 59.9 42.8 66.4 37.1 64.1C31.4 61.8 28.2 54.4 27.1 50.2C26.1 46.4 25.5 34.8 25.5 34.8" stroke="#00FF7F" stroke-width="3" stroke-miterlimit="10" stroke-linecap="round" stroke-linejoin="round"/>
<path d="M71.6 88.7L72.5 110.5C73 122.1 63.7 131.8 52 131.8C40.4 131.8 31.1 122.1 31.5 110.5L32.3 86.2C32.3 86.2 25.7 84.4 22.4 70.1C18.4 52.8 12.5 38.6 12.5 38.6L2.00002 7.79999C1.40002 5.19999 3.00002 2.7 5.50002 2C5.90002 1.9 6.40001 1.79999 6.80001 1.79999C8.80001 1.79999 10.6 3 11.4 5C11.4 5 15.1 15.7 17.5 21.3C19.1 25 25.6 34.8 25.6 34.8C26.3 30.2 34.8 25.9 36.2 28.3C36.2 28.3 37.2 22.4 40.5 21.2C43.8 19.9 47.2 21.1 47.2 21.1C47.2 21.1 48.9 16.2 53.5 14.8C58.1 13.4 62.3 13.7 64.7 17.5C67.1 21.3 76.8 45.5 77.3 46" stroke="#00FF7F" stroke-width="3" stroke-miterlimit="10" stroke-linecap="round" stroke-linejoin="round"/>
</svg>
