<svg width="131" height="134" viewBox="0 0 131 134" fill="none" xmlns="http://www.w3.org/2000/svg">
<path d="M51 33.7C51 33.7 74.9 27 77.1 26.2C79.3 25.3 99.4 23.9 99.4 23.9C99.4 23.9 120.4 23.3 119.2 30.3" stroke="#ffcc00" stroke-width="3" stroke-miterlimit="10" stroke-linecap="round" stroke-linejoin="round"/>
<path d="M48 30.1C48 30.1 70.2 22.1 74.8 20.7C79.4 19.3 95.5 14.7 125.2 23" stroke="#ffcc00" stroke-width="3" stroke-miterlimit="10" stroke-linecap="round" stroke-linejoin="round"/>
<path d="M67.8001 56.8C67.8001 56.8 68.2001 50.3 67.8001 46.4C66.8001 35.6 70.8 41.9 73.1 44.1C75.4 46.3 76.5001 49.9 76.5001 49.9" stroke="#ffcc00" stroke-width="3" stroke-miterlimit="10" stroke-linecap="round" stroke-linejoin="round"/>
<path d="M87.9001 35.4L86.1 48.8C86.1 48.8 87.6 52.9 86.1 59.3C83 72.7 78.8001 86.0001 54.7001 108.3L39.3 125C31.1 133.9 17.2 134.2 8.60001 125.6C0.100012 117.1 0.300049 103.1 9.20005 94.9L25.9001 79.5C29.0001 69.3 33.2001 48.9 33.4001 41.1C33.6001 33.3 35 26.9 46.5 23.3C54.7 20.8 64.9001 16.2 70.2001 13.7C72.6001 12.6 75.2001 12 77.9001 12C83.9001 12 94.4001 12.1 95.9001 12C99.5001 11.8 110.2 13.1 115.2 15.6C116.8 16.4 118.5 17.1 120.2 17.5L126.1 18.8C126.1 18.8 127.2 21.7 126.1 22.2C125 22.8 125 22.8 125 22.8L128.8 23.8C128.8 23.8 130 32.4 119 30.1C118.3 31.5 120.1 37.1 95.9001 33.4C95.9001 33.4 86.1 36.5 76.6 35.7C76.6 35.7 67.7 40.7 61.6 42.9C61.6 42.9 63.7 50.4 58 56.2C58 56.2 70.5 69.3 56.8 80.4" stroke="#ffcc00" stroke-width="3" stroke-miterlimit="10" stroke-linecap="round" stroke-linejoin="round"/>
<path d="M90.7 12.1L91.0001 9.20001C91.4001 5.80001 89.2001 2.70002 85.9001 1.90002C82.2001 1.00002 78.6 3.39997 77.8 7.09997L76.8 12" stroke="#ffcc00" stroke-width="3" stroke-miterlimit="10" stroke-linecap="round" stroke-linejoin="round"/>
</svg>
