<svg width="69" height="134" viewBox="0 0 69 134" fill="none" xmlns="http://www.w3.org/2000/svg">
<path d="M14.3001 99.6C13.3001 88.5 14.7001 83.9 14.7001 83.9C14.7001 83.9 7.90009 78.9 6.50009 74.6C5.10009 70.3 1.80009 52.7 1.80009 52.7C1.80009 52.7 1.60009 45 9.00009 44.9C9.00009 44.9 10.1001 36.9 18.7001 38.6C18.7001 38.6 22.5001 30.4 32.8001 33.9L52.7001 43.4C53.5001 44.2 46.9001 33.6 52.7001 27.5C52.7001 27.5 44.8001 22.6 41.6001 15.5C41.6001 15.5 37.6001 16.5 30.0001 12.3C24.3001 9.20005 27.6001 1.59998 27.6001 1.59998C27.6001 1.59998 40.6001 3.50005 42.8001 3.80005C42.8001 3.80005 45.6001 3.99995 54.9001 12.2C64.2001 20.5 63.9001 23.3 63.9001 23.3C63.9001 23.3 67.9001 44.7 67.0001 54.4C65.7001 68.3 55.6001 77.2 51.0001 101.6" stroke="#ffcc00" stroke-width="3" stroke-miterlimit="10" stroke-linecap="round" stroke-linejoin="round"/>
<path d="M18.6001 38.6C18.6001 38.6 18.7001 54.5 18.9001 57C19.0001 59.8 20.0001 67.7 25.3001 71.8C26.4001 72.6 23.3001 80.4 19.5001 78.4C15.7001 76.4 11.7001 65.9 10.3001 62.4C8.90014 58.9 8.90015 44.9 8.90015 44.9" stroke="#ffcc00" stroke-width="3" stroke-miterlimit="10" stroke-linecap="round" stroke-linejoin="round"/>
<path d="M25.3 71.7L28.5 74.5C30.8 74.4 33.9 72.2 32.7 65.3C32.7 65.3 31.1 61.1 29.6 59.2L29.9001 56.5" stroke="#ffcc00" stroke-width="3" stroke-miterlimit="10" stroke-linecap="round" stroke-linejoin="round"/>
<path d="M31.2001 98.3C31.2001 98.3 22.1001 84 40.0001 72.6C38.1001 70.1 38.5001 64.7 41.0001 60.8C41.0001 60.8 18.8001 54.1 27.1001 41C27.1001 41 47.5001 48 48.5001 48.8C50.3001 50.2 62.5001 63.4 58.9001 76.6" stroke="#ffcc00" stroke-width="3" stroke-miterlimit="10" stroke-linecap="round" stroke-linejoin="round"/>
<path d="M51 101.7L51.4001 112C51.8001 122.7 43.3 131.6 32.6 131.6C21.9 131.6 13.3 122.7 13.8 112L14.3 99.6" stroke="#ffcc00" stroke-width="3" stroke-miterlimit="10" stroke-linecap="round" stroke-linejoin="round"/>
<path d="M20.6002 78.7C20.6002 78.7 20.4002 84.9 14.7002 84" stroke="#ffcc00" stroke-width="3" stroke-miterlimit="10" stroke-linecap="round" stroke-linejoin="round"/>
</svg>
