<svg width="126" height="134" viewBox="0 0 126 134" fill="none" xmlns="http://www.w3.org/2000/svg">
<path d="M59.7002 26.1C59.7002 26.1 73.4002 27.5 79.2002 29.8C85.0002 32.1 84.6002 38.5 83.5002 47.8C82.4002 57.1 77.7002 68.5 76.0002 69.9C74.3002 71.3 70.8002 70.7 70.8002 70.7" stroke="#00FF7F" stroke-width="3" stroke-miterlimit="10" stroke-linecap="round" stroke-linejoin="round"/>
<path d="M53.1001 32.1L70.8001 36.9C70.8001 36.9 78.7001 38.8 76.8001 50.6C74.9001 62.4 68.5001 73.8 68.5001 73.8C68.5001 73.8 54.8001 75.5 62.5001 58.9C62.5001 58.9 61.1001 52.2 61.9001 48.6C61.9001 48.6 56.4001 49.6 53.1001 45.6C53.1001 45.6 59.2001 49.7 55.2001 55.9" stroke="#00FF7F" stroke-width="3" stroke-miterlimit="10" stroke-linecap="round" stroke-linejoin="round"/>
<path d="M53.4001 63.3C53.4001 63.3 55.9001 76.5 45.4001 83.9" stroke="#00FF7F" stroke-width="3" stroke-miterlimit="10" stroke-linecap="round" stroke-linejoin="round"/>
<path d="M79.2002 29.8C79.2002 29.8 86.4002 22.9 89.4002 21.4C92.1002 20.1 100.7 18.2 100.7 18.2" stroke="#00FF7F" stroke-width="3" stroke-miterlimit="10" stroke-linecap="round" stroke-linejoin="round"/>
<path d="M85.6001 36.4L96.4001 28.1L101.8 18.2" stroke="#00FF7F" stroke-width="3" stroke-miterlimit="10" stroke-linecap="round" stroke-linejoin="round"/>
<path d="M24.8 81.1999C25.2 77.8999 30.7001 59.4999 32.0001 53.5999C33.2001 47.6999 36.7 30.6 51.6 24.4C62.3 19.9 73.1001 13.9999 78.2001 11.0999C80.4001 9.89994 82.7 8.99997 85.1 8.49997C93 6.79997 111.1 3.00001 116.1 1.80001C122.6 0.200014 124.2 16.1 99.6 17.3L83.8 21.1999C83.8 21.1999 77.5001 26.0999 73.4001 28.0999" stroke="#00FF7F" stroke-width="3" stroke-miterlimit="10" stroke-linecap="round" stroke-linejoin="round"/>
<path d="M103.3 29.9C101.2 31.1 96 30.2 96.4 28.1" stroke="#00FF7F" stroke-width="3" stroke-miterlimit="10" stroke-linecap="round" stroke-linejoin="round"/>
<path d="M24.8001 81.2L8.7001 96.1C0.100101 104 -0.199905 117.5 8.1001 125.7C16.4001 134 29.8001 133.7 37.7001 125.1L52.6001 109C61.6001 100 66.4001 94.9 66.4001 94.9C77.6001 88.9 109.2 36.2 110.7 31C113.5 20.7 119.4 18.5 120.3 16.8C121.4 14.7 115.2 13.2 115.2 13.2C121.1 14.1 123.9 10 124.2 7.40002C124.3 6.60002 123.6 5.90002 122.8 5.90002L121.7 6" stroke="#00FF7F" stroke-width="3" stroke-miterlimit="10" stroke-linecap="round" stroke-linejoin="round"/>
</svg>
