<svg width="56" height="145" viewBox="0 0 56 145" fill="none" xmlns="http://www.w3.org/2000/svg">
<path d="M18.8999 58.2C24.1999 55.6 29.4999 55.4 29.4999 55.4C40.0999 55.7 40.5999 57.7 42.0999 62.9C43.5999 68.1 43.7999 70.6 42.8999 75C42.0999 79.4 41.0999 83.3 38.9999 87C31.1999 88.3 32.4999 78.9 34.0999 76.1C32.0999 73.9 30.4999 71.2 31.4999 68.6C29.5999 69.8 27.8999 70 25.5999 69.4C25.3999 71.5 25.3999 72.5 23.8999 74C29.1999 83.5 28.4999 92.1 22.2999 100.8" stroke="#00FF7F" stroke-width="3" stroke-miterlimit="10" stroke-linecap="round" stroke-linejoin="round"/>
<path d="M24.2 24.2C24.6 18.7 24.9999 12.3 25.3999 6.99997C25.6999 3.89997 27.3999 2.59997 30.0999 2.49997C32.7999 2.29997 34.3999 4.49997 34.7999 6.89997C34.7999 6.99997 34.7999 6.99997 34.7999 7.09997C34.8999 12.6 34.8999 18.3 34.8999 23.8" stroke="#00FF7F" stroke-width="3" stroke-miterlimit="10" stroke-linecap="round" stroke-linejoin="round"/>
<path d="M35.0999 36.5C35.1999 39.8 35.2998 42.5 35.4998 45.8" stroke="#00FF7F" stroke-width="3" stroke-miterlimit="10" stroke-linecap="round" stroke-linejoin="round"/>
<path d="M23.8999 36.6C23.7999 39.9 23.8999 44.8 23.8999 48.1" stroke="#00FF7F" stroke-width="3" stroke-miterlimit="10" stroke-linecap="round" stroke-linejoin="round"/>
<path d="M47.2999 58.3999C46.3999 54.7999 44.9999 51.1999 43.6999 50.0999C36.0999 43.1999 25.6999 44.3999 18.8999 52.3999C19.9999 50.8999 19.7999 44.5999 19.9999 42.6999C20.1999 41.2999 20.1999 39.0999 19.6999 37.5999C23.5999 37.5999 27.4999 34.7999 30.7999 32.9999C34.7999 36.8999 39.9999 40.9999 44.5999 35.2999C42.6999 32.3999 42.4999 31.6999 40.3999 28.3999C38.9999 26.1999 37.5999 23.5999 31.7999 23.7999C28.3999 23.8999 19.2999 24.1999 13.0999 28.2999C6.49988 32.6999 5.69987 56.7999 4.49987 62.2999C0.599874 78.9999 2.19988 87.7999 9.59988 103.4C9.59988 109.6 8.59987 118.3 8.89987 123.9C9.29987 134.8 15.7999 142.5 26.5999 142.6C26.5999 142.6 26.5999 142.8 26.5999 142.6C37.2999 142.7 43.8999 134.8 44.4999 124.1C44.7999 119.1 43.8999 110.6 43.8999 105.2C49.4999 93.5999 52.9999 84.3999 51.8999 71.3999C53.1999 65.6999 54.8999 62.2999 54.3999 60.3999C54.2999 59.9999 52.3999 58.0999 49.9999 58.3999C44.6999 58.9999 43.8999 65.1999 43.5999 70.5999" stroke="#00FF7F" stroke-width="3" stroke-miterlimit="10" stroke-linecap="round" stroke-linejoin="round"/>
</svg>
