<svg width="101" height="144" viewBox="0 0 101 144" fill="none" xmlns="http://www.w3.org/2000/svg">
<path d="M58.0042 20.8635V44.1635" stroke="#00FF7F" stroke-width="3" stroke-linecap="round" stroke-linejoin="round"/>
<path d="M58.0042 45.8634C59.3042 44.5634 61.7042 43.9634 63.5042 43.9634C61.2042 45.6634 59.2042 47.9634 58.0042 50.6634C56.9042 47.9634 54.8042 45.8634 52.5042 43.9634C54.4042 44.0634 56.6042 44.5634 58.0042 45.8634Z" fill="#00FF7F"/>
<path d="M38.1042 51.5634C38.1042 51.5634 36.1042 14.5634 35.3042 10.8634C34.8042 8.36344 32.8042 3.86344 27.5042 7.76344" stroke="#00FF7F" stroke-width="3" stroke-miterlimit="10" stroke-linecap="round" stroke-linejoin="round"/>
<path d="M28.5043 52.7635L27.5043 6.26345C27.5043 3.76345 25.4043 1.66345 22.8043 1.66345C20.2043 1.66345 18.1043 3.76345 18.1043 6.36345C18.1043 12.7635 18.1043 27.4635 17.8043 30.9635C17.4043 35.6635 17.2043 53.5635 17.2043 53.5635" stroke="#00FF7F" stroke-width="3" stroke-miterlimit="10" stroke-linecap="round" stroke-linejoin="round"/>
<path d="M17.9041 9.66345C17.9041 9.66345 10.5041 3.96345 9.60415 13.9634L6.00415 53.1634C0.104146 73.7634 1.10415 86.1634 8.00415 105.463C8.60415 107.163 8.90415 109.063 8.80415 110.863L8.20415 125.063C7.80415 134.163 15.1041 141.663 24.1041 141.663C33.2041 141.663 40.4041 134.163 40.0041 125.063L39.6041 112.663C39.5041 109.863 40.0041 107.063 41.0041 104.463C44.1041 96.8634 51.3041 87.1634 48.6041 63.2634C48.1041 59.2634 44.8041 43.5634 37.6041 42.7634" stroke="#00FF7F" stroke-width="3" stroke-miterlimit="10" stroke-linecap="round" stroke-linejoin="round"/>
<path d="M12.5042 68.6635V62.7635" stroke="#00FF7F" stroke-width="3" stroke-miterlimit="10" stroke-linecap="round" stroke-linejoin="round"/>
<path d="M22.9041 67.3635V61.3635" stroke="#00FF7F" stroke-width="3" stroke-miterlimit="10" stroke-linecap="round" stroke-linejoin="round"/>
<path d="M33.3042 68.6635V62.7635" stroke="#00FF7F" stroke-width="3" stroke-miterlimit="10" stroke-linecap="round" stroke-linejoin="round"/>
</svg>
