<svg width="111" height="123" viewBox="0 0 111 123" fill="none" xmlns="http://www.w3.org/2000/svg">
<path d="M40.6001 50.6C40.6001 50.6 46.6001 33.3 47.0001 29.9C47.3001 26.8 52.5001 8.39998 53.6001 2.59998C53.7001 1.99998 54.3001 1.5 55.0001 1.5C57.7001 1.6 63.7001 3.49998 59.5001 19.1C59.5001 19.1 54.0001 41.6 55.0001 58.2C55.5001 66.4 52.7001 74.4 47.0001 80.3C46.9001 80.4 46.8001 80.5 46.7001 80.6" stroke="#00FF7F" stroke-width="3" stroke-miterlimit="10" stroke-linecap="round" stroke-linejoin="round"/>
<path d="M104.9 55C108.8 56.3 109.1 53.6 109.1 53.6C109.5 50.9 97.2 42.2 96.2 42.1C95.1 41.9 80.4 35.2 78.7 35C76.9 34.8 55.8 39.2 55.8 39.2" stroke="#00FF7F" stroke-width="3" stroke-miterlimit="10" stroke-linecap="round" stroke-linejoin="round"/>
<path d="M59.7 38.4C59.7 38.4 76.4 38.0001 81.3 40.3001C86.3 42.6001 90.5 44.2 90.5 44.2L104 53.1C104 53.1 103.6 62 87.4 53.1C87.4 53.1 80.8 52.6 74.8 48C74.8 48 70.7 53.1 61.7 52C61.7 52 61.5 53.6001 60.1 55.3001C60.1 55.3001 66.3 58.9 65.8 68.1" stroke="#00FF7F" stroke-width="3" stroke-miterlimit="10" stroke-linecap="round" stroke-linejoin="round"/>
<path d="M92.1 55.4C92.1 55.4 88.2 55 84.5 57.9L70.4 62.4L65 62" stroke="#00FF7F" stroke-width="3" stroke-miterlimit="10" stroke-linecap="round" stroke-linejoin="round"/>
<path d="M21.2 78.3C32.5 60.5 31.3 56 33.9 49.7C35.5 45.9 38.3999 42.9 42.0999 41.1L43.7 40.3" stroke="#00FF7F" stroke-width="3" stroke-miterlimit="10" stroke-linecap="round" stroke-linejoin="round"/>
<path d="M102.9 55.7C102.9 55.7 105.4 56.1 104.7 59.8C104.6 60.2 104.4 60.6 104 60.8L94.7 64.8C94.7 64.8 75.1 74.4 67.3 86.5C63.4 92.6 49.5 96.8 45 102.1" stroke="#00FF7F" stroke-width="3" stroke-miterlimit="10" stroke-linecap="round" stroke-linejoin="round"/>
<path d="M21.2 78.3L7.40002 91C0.100015 97.8 -0.199985 109.3 6.90002 116.3C14 123.4 25.5 123.1 32.2 115.8L45 102" stroke="#00FF7F" stroke-width="3" stroke-miterlimit="10" stroke-linecap="round" stroke-linejoin="round"/>
</svg>
