<svg width="56" height="143" viewBox="0 0 56 143" fill="none" xmlns="http://www.w3.org/2000/svg">
<path d="M36.3 49.1C36.3 49.1 36.6001 46 36.5001 40.8C36.4001 35 36.7001 32.5 37.1001 26.3C37.3001 23.7 37.6001 14 37.7001 8.40002C37.8001 6.10002 39.7001 4.20004 42.1001 4.30004C44.3001 4.40004 46.0001 6.20002 46.1001 8.40002C46.2001 11.5 46.3001 15.4999 46.4001 16.1999C47.2001 24.5999 46.9001 32.2 47.0001 32.6C47.2001 37.1 47.6001 61.4 47.6001 61.4" stroke="#ffcc00" stroke-width="3" stroke-miterlimit="10" stroke-linecap="round" stroke-linejoin="round"/>
<path d="M12.3 105.8C5.19997 94.9001 4.39999 88.9001 3.59999 81.8001C2.89999 74.7001 -0.100025 65.4 5.39998 58.7C10.9 52 15.7 47.7 20.8 47.2C25.9 46.7 23.8 45.9001 23.8 45.9001C23.8 45.9001 26.4 36.2 27.5 31.1C28.8 25.2 28.1 26.9 32.3 17.2C33.8 13.8 36.9 7.6 39 3.7C40.1 1.7 42.6 0.900052 44.5 2.00005L44.6 2.10003C46.6 3.20003 47.3 5.8 46.1 7.7" stroke="#ffcc00" stroke-width="3" stroke-miterlimit="10" stroke-linecap="round" stroke-linejoin="round"/>
<path d="M32.0998 88.2C32.0998 88.2 31.4999 81.2 37.1999 77.4C39.6999 75.7 41.4998 75.9 41.4998 75.9C40.2998 73.4 39.7998 71.5 41.4998 68.7C39.6998 68.6 23.3998 54.2 36.3998 48.6C36.3998 48.6 46.8998 60.9 49.0998 62.8C49.0998 62.8 51.3999 69.9 53.6999 74.2C54.2999 75.3 54.4998 76.5 54.2998 77.8C52.5998 92.1 47.5999 101 44.6999 105.8" stroke="#ffcc00" stroke-width="3" stroke-miterlimit="10" stroke-linecap="round" stroke-linejoin="round"/>
<path d="M36 74.9C37.1 76.1 37.4 76.3 38.4 76.7" stroke="#ffcc00" stroke-width="3" stroke-miterlimit="10" stroke-linecap="round" stroke-linejoin="round"/>
<path d="M11.2999 65.4999C16.3999 65.9999 18.3999 62.4999 19.5999 59.9999C19.5999 59.9999 20.5999 65.6 24.9999 68.3C26.9999 71.7 28.7999 79 36.7999 74.5C36.7999 74.5 33.1999 67.9 31.8999 64.9C31.4999 64.8 31.5999 62.0999 28.8999 57.5999C26.3999 53.1999 19 47.7 10.7 52.8" stroke="#ffcc00" stroke-width="3" stroke-miterlimit="10" stroke-linecap="round" stroke-linejoin="round"/>
<path d="M18 71.1C18 71.1 21.1 65.7 20.9 63.6" stroke="#ffcc00" stroke-width="3" stroke-miterlimit="10" stroke-linecap="round" stroke-linejoin="round"/>
<path d="M22.8 46.8C22.8 46.8 27.8001 45.3999 29.9001 46.1999C32.0001 46.9999 33.9001 50.0999 33.9001 50.0999" stroke="#ffcc00" stroke-width="3" stroke-miterlimit="10" stroke-linecap="round" stroke-linejoin="round"/>
<path d="M44.6999 105.8L45.3999 123.9C45.7999 133.5 38.0999 141.5 28.4999 141.5C18.8999 141.5 11.1999 133.5 11.5999 123.9L12.2999 105.8" stroke="#ffcc00" stroke-width="3" stroke-miterlimit="10" stroke-linecap="round" stroke-linejoin="round"/>
<path d="M23.2 87.2C26.4 88.9 29.7 97 22.2 102.4" stroke="#ffcc00" stroke-width="3" stroke-miterlimit="10" stroke-linecap="round" stroke-linejoin="round"/>
</svg>
