<svg width="91" height="134" viewBox="0 0 91 134" fill="none" xmlns="http://www.w3.org/2000/svg">
<path d="M16.0261 15C-10.3738 10.1 3.52615 43.7 26.5261 23.5" stroke="#00FF7F" stroke-width="3" stroke-linecap="round" stroke-linejoin="round" stroke-dasharray="4 6"/>
<path d="M15.5262 14.9C14.0262 15.9 13.0262 18.2 12.6262 19.9C14.7262 17.9 17.3262 16.4 20.1262 15.7C17.6262 14.1 15.9262 11.7 14.5262 9.09998C14.4262 11 14.5262 13.3 15.5262 14.9Z" fill="#00FF7F"/>
<path d="M14.1001 50.1999C14.1001 50.1999 26.3001 44.7 38.4001 46.8C45.7001 48 48.6001 46.8 49.3001 49.4C49.9001 52 48.5001 65.2999 47.7001 68.5999C46.9001 71.8999 42.5001 79.6999 35.7001 78.0999" stroke="#00FF7F" stroke-width="3" stroke-miterlimit="10" stroke-linecap="round" stroke-linejoin="round"/>
<path d="M26 51.2C26 51.2 37.3 52.2 37.9 52.6C42.3 55.1 43.1 58.2 41 67.8C40.8 68.7 40.1 76.2 34.5 78.6C32.7 79.4 30 78.4 30 78.4" stroke="#00FF7F" stroke-width="3" stroke-miterlimit="10" stroke-linecap="round" stroke-linejoin="round"/>
<path d="M57 72.1C57 72.1 57.1 72.2 54 67.9" stroke="#00FF7F" stroke-width="3" stroke-miterlimit="10" stroke-linecap="round" stroke-linejoin="round"/>
<path d="M37.7002 46.3C38.1002 44 40.1002 33.6 40.5002 32C42.0002 25.2 43.8002 12.9 44.7002 6.4C45.0002 4 47.1002 2.29998 49.5002 2.49998C51.9002 2.69998 53.8002 4.79993 53.7002 7.19993L53.4002 14.8C53.4002 14.8 49.9002 41 48.6002 48" stroke="#00FF7F" stroke-width="3" stroke-miterlimit="10" stroke-linecap="round" stroke-linejoin="round"/>
<path d="M49.0001 59.8L54.0001 67.9C54.0001 67.9 59.8001 66.7 62.8001 66.4C65.7001 66.1 75.6001 61.3 83.8001 65C90.3001 67.9 89.2001 72.6 88.5001 74.4C88.3001 74.9 87.9001 75.2 87.4001 75.2C85.3001 75.3 79.1001 75.5 75.1001 75.1C75.1001 75.1 71.8001 76.2 64.5001 79.5C54.1001 84.1 52.5001 96.3 41.7001 98.2L42.4001 115.6C42.8001 124.9 35.4 132.6 26.1 132.6C16.8 132.6 9.40006 124.9 9.80006 115.6L10.5001 98.2C10.5001 98.2 8.70008 86.4 8.10008 83.2C5.20008 67.7 7.90007 55.4 10.4001 53.2C13.2001 50.7 14.1001 50.3 14.1001 50.3C14.1001 50.3 26.3 50.9 28.1 51.9C30.3 53.2 33.5001 55.2 34.9001 59.6C35.9001 62.5 35.2 69.3 35.1 69.7C34.3 72.1 30.3001 78.4 30.3001 78.4C24.1001 80 24.6001 72.4 27.0001 69C27.0001 69 23.1 63.4 25.1 60.8C25.1 60.8 21.5001 64.2 17.8001 62C17.8001 62 21.5001 68.6 16.2001 71.9" stroke="#00FF7F" stroke-width="3" stroke-miterlimit="10" stroke-linecap="round" stroke-linejoin="round"/>
</svg>
