<svg width="48" height="153" viewBox="0 0 48 153" fill="none" xmlns="http://www.w3.org/2000/svg">
<path d="M11.8 62L13.6 21C13.6 21 13.4001 14.5 17.4001 14.2" stroke="#ffcc00" stroke-width="3" stroke-miterlimit="10" stroke-linecap="round" stroke-linejoin="round"/>
<path d="M16.3 71.1L17.8 19.7C17.8 19.7 15.8001 -1.5 28.2001 1.9C28.6001 2 28.9001 2.3 28.9001 2.6L29.0001 7.5" stroke="#ffcc00" stroke-width="3" stroke-miterlimit="10" stroke-linecap="round" stroke-linejoin="round"/>
<path d="M23.2002 62L24.6002 30.8C24.6002 30.8 21.9002 6.59998 32.9002 6.89998C34.3002 6.89998 35.4002 8.09998 35.4002 9.49998L35.2002 44" stroke="#ffcc00" stroke-width="3" stroke-miterlimit="10" stroke-linecap="round" stroke-linejoin="round"/>
<path d="M8.00009 114.7C-0.399914 103.2 1.70011 83.8999 5.90011 70.1999L7.2001 36.5999C7.2001 36.5999 6.70008 30.5 12.5001 28.2" stroke="#ffcc00" stroke-width="3" stroke-miterlimit="10" stroke-linecap="round" stroke-linejoin="round"/>
<path d="M21.7 107.7C18.5 101.6 18.8999 81.1 29.0999 79.2C29.0999 79.2 29.7 73.7 29.3 70.6C28.6 64.6 26.9 41.6 42.2 41.8C43.4 41.8 44.1999 42.8 44.0999 44C43.5999 47.5 42.6999 55.2 42.0999 66.3C41.2999 81.6 51.7 85.9 41 108.8L42 133.3C42.4 143.2 34.5 151.5 24.5 151.5C14.6 151.5 6.59997 143.2 6.99997 133.3L7.79996 114.7" stroke="#ffcc00" stroke-width="3" stroke-miterlimit="10" stroke-linecap="round" stroke-linejoin="round"/>
</svg>
