<svg width="126" height="134" viewBox="0 0 126 134" fill="none" xmlns="http://www.w3.org/2000/svg">
<path d="M51.5001 91C51.5001 91 47 81.8 42.8 79.2" stroke="#ffcc00" stroke-width="3" stroke-miterlimit="10" stroke-linecap="round" stroke-linejoin="round"/>
<path d="M62.4001 92.9C62.4001 92.9 61.4 84.4 54.3 77.9" stroke="#ffcc00" stroke-width="3" stroke-miterlimit="10" stroke-linecap="round" stroke-linejoin="round"/>
<path d="M71.8001 93.3C71.8001 93.3 71.3001 84.2 66.6001 76.7" stroke="#ffcc00" stroke-width="3" stroke-miterlimit="10" stroke-linecap="round" stroke-linejoin="round"/>
<path d="M32.0001 80.8C33.9001 83.7 38.9001 90 40.7001 91.5C42.9001 93.3 48.1001 93.3 49.8001 92.2C51.5001 91 51.5001 91 51.5001 91C51.5001 91 57.2001 97.1 62.4001 92.9C62.4001 92.9 69.0001 99.6 71.8001 93.3V126.5C71.8001 129.8 74.5001 132.5 77.8001 132.5C81.1001 132.5 83.8001 129.8 83.8001 126.5C83.8001 126.5 83.8001 126.5 83.8001 126.4L83.1001 57.3C83.1001 57.3 89.7001 55.6 92.0001 54C94.3001 52.3 124.3 64.6 124 46C124 46 110.6 45.1 109.8 44.8C109 44.4 99.2001 42.9 95.6001 40.6C94.2001 39.7 92.2001 38.4 90.2001 37C86.5001 34.5 81.1001 32.7 76.7001 31.7C68.9001 30 55.9001 26.2 48.5001 19.1C48.0001 18.6 47.5001 18.1 46.9001 17.7C44.7001 16 38.2001 11.1 31.8001 6.19998C23.3001 -0.300024 11.2001 1.59997 5.00012 10.4C2.70012 13.7 1.6001 17.4 1.6001 21.2C1.6001 27.4 4.60013 33.4 10.2001 37L27.4001 48C28.6001 57.9 25.2001 70.3 32.0001 80.8Z" stroke="#ffcc00" stroke-width="3" stroke-miterlimit="10" stroke-linecap="round" stroke-linejoin="round"/>
<path d="M44.3 61.7L46.6 68.7" stroke="#ffcc00" stroke-width="3" stroke-miterlimit="10" stroke-linecap="round" stroke-linejoin="round"/>
<path d="M56.6001 63.2999L58.8001 70.2999" stroke="#ffcc00" stroke-width="3" stroke-miterlimit="10" stroke-linecap="round" stroke-linejoin="round"/>
<path d="M68.8 61.7L71.1 68.7" stroke="#ffcc00" stroke-width="3" stroke-miterlimit="10" stroke-linecap="round" stroke-linejoin="round"/>
</svg>
