<svg width="126" height="134" viewBox="0 0 126 134" fill="none" xmlns="http://www.w3.org/2000/svg">
<path d="M51.9 91C51.9 91 47.4 81.8 43.2 79.2" stroke="#00FF7F" stroke-width="3" stroke-miterlimit="10" stroke-linecap="round" stroke-linejoin="round"/>
<path d="M62.7999 92.9C62.7999 92.9 61.8 84.4 54.7 77.9" stroke="#00FF7F" stroke-width="3" stroke-miterlimit="10" stroke-linecap="round" stroke-linejoin="round"/>
<path d="M72.3001 93.3C72.3001 93.3 71.8001 84.2 67.1001 76.7" stroke="#00FF7F" stroke-width="3" stroke-miterlimit="10" stroke-linecap="round" stroke-linejoin="round"/>
<path d="M32.4 80.8C34.3 83.7 39.3 90 41.1 91.5C43.3 93.3 48.5 93.3 50.2 92.2C51.9 91 51.9 91 51.9 91C51.9 91 57.6 97.1 62.8 92.9C62.8 92.9 69.4 99.6 72.2 93.3V126.5C72.2 129.8 74.9 132.5 78.2 132.5C81.5 132.5 84.2 129.8 84.2 126.5C84.2 126.5 84.2 126.5 84.2 126.4L83.5 57.3C83.5 57.3 90.1 55.6 92.4 54C94.7 52.3 124.7 64.6 124.4 46C124.4 46 111 45.1 110.2 44.8C109.4 44.4 99.6 42.9 96 40.6C94.6 39.7 92.6 38.4 90.6 37C86.9 34.5 81.5 32.7 77.1 31.7C69.3 30 56.3 26.2 48.9 19.1C48.4 18.6 47.9 18.1 47.3 17.7C45.1 16 38.6 11.1 32.2 6.19998C23.7 -0.300024 11.6 1.59997 5.40002 10.4C3.10002 13.7 2 17.4 2 21.2C2 27.4 4.99998 33.4 10.6 37L27.8 48C29 57.9 25.7 70.3 32.4 80.8Z" stroke="#00FF7F" stroke-width="3" stroke-miterlimit="10" stroke-linecap="round" stroke-linejoin="round"/>
<path d="M44.7 61.7L46.9999 68.7" stroke="#00FF7F" stroke-width="3" stroke-miterlimit="10" stroke-linecap="round" stroke-linejoin="round"/>
<path d="M57 63.2999L59.3 70.2999" stroke="#00FF7F" stroke-width="3" stroke-miterlimit="10" stroke-linecap="round" stroke-linejoin="round"/>
<path d="M69.2998 61.7L71.4998 68.7" stroke="#00FF7F" stroke-width="3" stroke-miterlimit="10" stroke-linecap="round" stroke-linejoin="round"/>
</svg>
