<svg width="138" height="144" viewBox="0 0 138 144" fill="none" xmlns="http://www.w3.org/2000/svg">
<path d="M129.924 39.6156C130.524 50.7156 115.724 54.0156 111.624 44.0156C107.024 32.9156 124.424 21.0156 134.324 36.1156C138.424 42.3156 134.624 53.7156 120.524 62.6156" stroke="#00FF7F" stroke-width="3" stroke-linecap="round" stroke-linejoin="round" stroke-dasharray="4 6"/>
<path d="M120.925 62.4156C122.625 62.8156 124.525 64.6156 125.425 66.0156C122.725 65.0156 119.825 64.4156 116.925 64.9156C118.625 62.5156 119.325 59.6156 119.625 56.7156C120.425 58.4156 121.225 60.5156 120.925 62.4156Z" fill="#00FF7F"/>
<path d="M65.1001 51.8C65.1001 51.8 72.6001 55.5001 75.5001 58.6001C77.7001 61.0001 79.8001 63.4 78.5001 67.8C77.4001 71.7 76.7001 73.4001 75.5001 76.7001C75.1001 77.9001 72.7001 85.1 66.0001 87.3" stroke="#00FF7F" stroke-width="3" stroke-miterlimit="10" stroke-linecap="round" stroke-linejoin="round"/>
<path d="M60.7999 62.6C60.8999 63.2 61.3999 68.9 53.6999 74.2C53.8999 75.8 52.2999 85.6 44.3999 90.6" stroke="#00FF7F" stroke-width="3" stroke-miterlimit="10" stroke-linecap="round" stroke-linejoin="round"/>
<path d="M60.8 62.6C62.2 67.1 68.6 67.4 68.6 67.4C66.6 71 68 76.4 68 76.4C68 76.4 59.3 80.5 61.6 87.1C61.9 88 62.9 88.5 63.8 88.2L66.1 87.5C65.7 88.2 65.8 89.2 66.1 90C66.5 91.2 67.9 91.7 69 91C71.3 89.6 75.8001 87 76.3001 86.1C78.5001 82.5 81.1 76.6 85.5 69.1C90.8 59.9 77.5 53.5 75 51.7C74.9 51.6 74.7 51.5 74.6 51.4C73 50.2 71.5 48.5 70.7 47.6" stroke="#00FF7F" stroke-width="3" stroke-miterlimit="10" stroke-linecap="round" stroke-linejoin="round"/>
<path d="M85.6 61C85.6 61 90.7 53.4 95.8 58.5C96.3 59 96.5 59.8 96.2 60.5C95.3 62.6 93.1 67.2 91.1 69.8C91.1 69.8 81.9 87.3 66.6 99.4C57.5 106.6 56.7 109.7 46.6 120.6L33.4 136C26.3 144.2 14.3 144.5 6.9 136.6C-0.500005 128.7 -0.200005 115.8 7.4 108.3L21.8 94C21.8 94 42 51 51.1 44.8C56.9 40.8 61.6 41 66.5 36.9" stroke="#00FF7F" stroke-width="3" stroke-miterlimit="10" stroke-linecap="round" stroke-linejoin="round"/>
<path d="M70.6 47.5L108.9 10.9L109.4 10.4C109.5 10.3 109.5 10.3 109.6 10.2C111.2 8.50002 111.3 5.80002 109.8 4.00002C108.3 2.10002 105.6 1.80002 103.8 3.50002L66.5 37" stroke="#00FF7F" stroke-width="3" stroke-miterlimit="10" stroke-linecap="round" stroke-linejoin="round"/>
<path d="M108.8 10.9C109.2 11.2 109.6 11.5 110 11.9C111.5 13.8 111.4 16.6 109.8 18.3C109.7 18.4 109.7 18.5 109.6 18.5L74.5 51.2" stroke="#00FF7F" stroke-width="3" stroke-miterlimit="10" stroke-linecap="round" stroke-linejoin="round"/>
</svg>
