<svg width="146" height="144" viewBox="0 0 146 144" fill="none" xmlns="http://www.w3.org/2000/svg">
<path d="M58.6001 116.9C65.3001 109.9 72.7001 101.7 72.7001 101.7C89.2001 102.4 94.9001 95.4 100.7 87.7C106.6 80 118.6 71.4 123.6 69.2C128.6 66.9 140.8 48.9 143.8 44.9C145.9 42.2 139.3 37.8 135.2 40C133.9 40.7 133 41.4 133 41.4C133 41.4 131.2 30.1 128.9 24.5C126.6 18.9 120.5 14.8 116 11.9C111.5 9.00002 104.9 1.50002 100.9 2.40002C96.9 3.30002 71.5 20.5 63.4 26.6C55.3 32.7 30.7001 82.4 27.6001 86L9.60006 102.6C6.05583e-05 111.4 -0.299951 126.5 8.90005 135.7C18.1 144.9 33.1001 144.6 42.0001 135L58.6001 116.9Z" stroke="#00FF7F" stroke-width="3" stroke-miterlimit="10" stroke-linecap="round" stroke-linejoin="round"/>
<path d="M124.5 55.9C127.1 57.1 129.1 55.1 129.1 55.1L127.3 47.3C127.3 47.3 126.7 39.5 125.7 34C125 30.4 122.8 27.1 121.2 25.1C120.3 23.9 119.1 22.9 117.9 22.1C115.3 20.4 110 16.9 105.7 13.3C99.8002 8.30005 77.4001 16.9 77.4001 16.9" stroke="#00FF7F" stroke-width="3" stroke-miterlimit="10" stroke-linecap="round" stroke-linejoin="round"/>
<path d="M75.1001 26.2L94.0001 23C96.3001 22.6 98.7001 23.1 100.6 24.5C104.2 27.1 110.1 31.2 112.2 32.1C115.4 33.5 120.8 38 121.2 43.5C121.7 49 126 55.6 124.1 56.6C119.9 58.9 111.5 56.6 110.3 43.7C110.3 43.7 100.7 42.8 93.0001 38.2C93.0001 38.2 86.0001 45.2 77.2001 44.4C77.2001 44.4 83.4 72.3 53.3 81.9" stroke="#00FF7F" stroke-width="3" stroke-miterlimit="10" stroke-linecap="round" stroke-linejoin="round"/>
<path d="M116 55.8C110.3 59 101.4 62.6001 101.4 62.6001C101.2 59.3001 98.6001 51.8001 94.4001 49.9001C94.4001 49.9001 98.0002 47.5 98.5002 40.8" stroke="#00FF7F" stroke-width="3" stroke-miterlimit="10" stroke-linecap="round" stroke-linejoin="round"/>
<path d="M132.9 39.9L134.5 49.7C134.5 49.7 132 53.6 128.3 51.3" stroke="#00FF7F" stroke-width="3" stroke-miterlimit="10" stroke-linecap="round" stroke-linejoin="round"/>
</svg>
