<svg width="148" height="144" viewBox="0 0 148 144" fill="none" xmlns="http://www.w3.org/2000/svg">
<path d="M109.9 42.0001C121.2 47.9001 139.5 44.3 145.1 32.3C148.8 24.3 136.4 22.7001 130.7 22.7001" stroke="#00FF7F" stroke-width="3" stroke-linecap="round" stroke-linejoin="round" stroke-dasharray="4 6"/>
<path d="M110.3 42.2001C112 41.7001 113.7 39.8 114.5 38.3C111.9 39.5 109 40.3001 106.1 40.0001C108 42.2001 108.9 45.1001 109.5 47.9001C110.2 46.2001 110.8 44.1001 110.3 42.2001Z" fill="#00FF7F"/>
<path d="M58.5 42.7001C58.5 42.7001 83.6 46.3001 86.7 51.7001C89.9 57.0001 85.1 69.3001 83.9 71.4001C82.4 74.0001 76 77.1001 76 77.1001" stroke="#00FF7F" stroke-width="3" stroke-miterlimit="10" stroke-linecap="round" stroke-linejoin="round"/>
<path d="M57.3001 48.4C57.3001 48.4 76.5001 52.3 79.1001 57C81.2001 60.9 80.1001 64.8 79.1001 68C78.1001 71.2 75.6001 78.2 75.6001 78.2C75.6001 78.2 74.2001 82.2 68.8001 84.5C66.4001 85.5 65.0001 86.1 64.1001 86.4C63.3001 86.7 62.4001 86.3 62.0001 85.5C61.0001 83.5 60.0001 79.2 66.1001 74.7C66.1001 74.7 63.4001 68.5 69.8001 65C69.8001 65 64.6001 64.7 61.8001 61.5C61.8001 61.5 59.2001 64.1 56.5001 64.7C56.5001 64.7 59.5001 73.3 52.4001 82.5" stroke="#00FF7F" stroke-width="3" stroke-miterlimit="10" stroke-linecap="round" stroke-linejoin="round"/>
<path d="M84.8001 69.4C84.8001 69.4 99.4001 52.3 87.7001 41.2C82.5001 36.3 59.4001 38.7 59.4001 38.7" stroke="#00FF7F" stroke-width="3" stroke-miterlimit="10" stroke-linecap="round" stroke-linejoin="round"/>
<path d="M84.8001 69.4C84.8001 69.4 91.0001 69.4 96.3001 72.2C96.3001 72.2 101.8 69.8 107.9 70C107.9 70 128.3 52.6 133.6 68.5C133.6 68.5 110.6 85.6 108.1 86.6C103.3 88.5 76.8001 120.5 54.0001 119.1L38.8001 135.6C30.7001 144.4 17.0001 144.6 8.60009 136.2C0.200092 127.8 0.500098 114 9.2001 106L25.7001 90.8C25.6001 86.1 27.0001 79.5 32.2001 72.3C38.0001 64.4 66.4001 16.2 70.5001 14.5C74.6001 12.7 84.7001 7.70002 87.4001 6.70002C94.6001 4.00002 105.3 -0.199969 117.5 4.30003C117.5 4.30003 120.7 15.3 99.1001 15.1C99.1001 15.1 89.1001 22.7 80.9001 25.1C80.9001 25.1 77.0001 33.7 73.3001 38.2" stroke="#00FF7F" stroke-width="3" stroke-miterlimit="10" stroke-linecap="round" stroke-linejoin="round"/>
</svg>
