<svg width="154" height="116" viewBox="0 0 154 116" fill="none" xmlns="http://www.w3.org/2000/svg">
<path d="M67.1001 8C74.1001 8.6 93.2001 6 102.2 6C111.2 6 142.8 8.5 145.4 8.5C148 8.5 149.3 22 136.5 22.3C124.8 22.5 117.9 21.6 117.9 21.6" stroke="#00FF7F" stroke-width="3" stroke-miterlimit="10" stroke-linecap="round" stroke-linejoin="round"/>
<path d="M65.1 17C65.1 17 85.6 11.1 90.6 11.1C95.7 11.1 126.4 8.00001 131.4 8.40001C132.8 8.50001 135.3 18.2 121.8 21L112.7 22.3C112.7 22.3 96.7001 29.8 87.4001 29.3C87.4001 29.3 77.8 37.8 72.8 39.1C72.8 39.1 71.7 52.8 61.3 60.7" stroke="#00FF7F" stroke-width="3" stroke-miterlimit="10" stroke-linecap="round" stroke-linejoin="round"/>
<path d="M112.7 22.4C112.7 22.4 102.5 27.7 97.6001 31.7C93.2001 35.4 90.4001 36.2 90.4001 36.2C90.4001 36.2 87.2001 33.9 82.6001 33.3" stroke="#00FF7F" stroke-width="3" stroke-miterlimit="10" stroke-linecap="round" stroke-linejoin="round"/>
<path d="M136.5 22.4C136.5 22.4 134.2 32.4 120.7 34.7C112.2 36.2 93.2001 63.4 93.2001 63.4C93.2001 63.4 84.3001 77.4 69.0001 82.5C69.0001 82.5 62.6001 86 53.7001 91.1L38.5001 107.6C30.4001 116.4 16.6001 116.7 8.10007 108.2C-0.399926 99.7 -0.0998893 85.9 8.70011 77.8L25.2001 62.6C25.7001 61.3 37.5001 39.1 40.5001 31.6C43.4001 24.4 51.1001 10.1 53.6001 8.1C56.1001 6.1 59.0001 1.29999 67.1001 2.39999C75.2001 3.49999 102.5 2.49999 108 2.39999C113.5 2.29999 146.8 4.29998 150.5 4.79998C153.2 5.19998 151.8 16.2 146.7 16.8" stroke="#00FF7F" stroke-width="3" stroke-miterlimit="10" stroke-linecap="round" stroke-linejoin="round"/>
</svg>
