<svg width="151" height="101" viewBox="0 0 151 101" fill="none" xmlns="http://www.w3.org/2000/svg">
<rect x="4.08594" y="4.9078" width="142" height="92" rx="8" stroke="#00FF7F" stroke-width="8"/>
<rect x="22.5908" y="22.9078" width="12" height="12" rx="2" fill="#00FF7F"/>
<rect x="45.8384" y="22.9078" width="12" height="12" rx="2" fill="#00FF7F"/>
<rect x="69.0859" y="22.9078" width="12" height="12" rx="2" fill="#00FF7F"/>
<rect x="92.3335" y="22.9078" width="12" height="12" rx="2" fill="#00FF7F"/>
<rect x="115.581" y="22.9078" width="12" height="12" rx="2" fill="#00FF7F"/>
<rect x="34.2146" y="44.9078" width="12" height="12" rx="2" fill="#00FF7F"/>
<rect x="57.4622" y="44.9078" width="12" height="12" rx="2" fill="#00FF7F"/>
<rect x="80.7097" y="44.9078" width="12" height="12" rx="2" fill="#00FF7F"/>
<rect x="103.957" y="44.9078" width="12" height="12" rx="2" fill="#00FF7F"/>
<rect x="22.5908" y="66.9078" width="12" height="12" rx="2" fill="#00FF7F"/>
<rect x="45.8384" y="66.9078" width="58.4951" height="12" rx="2" fill="#00FF7F"/>
<rect x="115.581" y="66.9078" width="12" height="12" rx="2" fill="#00FF7F"/>
</svg>
